<svg width="27" height="25" viewBox="0 0 27 25" fill="none" xmlns="http://www.w3.org/2000/svg">
<path d="M20.66 15.9537C20.8584 15.9537 21.0192 16.1147 21.0192 16.3133V17.7206C21.4578 17.8706 21.7742 18.287 21.7742 18.7763C21.7742 19.3914 21.2743 19.8918 20.66 19.8918C20.4836 19.8918 20.3168 19.8504 20.1684 19.7771L18.9734 20.9735C18.9033 21.0437 18.8113 21.0788 18.7194 21.0788C18.6275 21.0788 18.5355 21.0437 18.4654 20.9735C18.3251 20.833 18.3251 20.6053 18.4654 20.4649L19.6604 19.2685C19.5871 19.1199 19.5457 18.9529 19.5457 18.7764C19.5457 18.2871 19.8621 17.8707 20.3007 17.7207V16.3134C20.3008 16.1147 20.4615 15.9537 20.66 15.9537ZM20.2642 18.7763C20.2642 18.9948 20.4418 19.1726 20.66 19.1726C20.8782 19.1726 21.0557 18.9948 21.0557 18.7763C21.0557 18.5578 20.8782 18.3801 20.66 18.3801C20.4418 18.3801 20.2642 18.5578 20.2642 18.7763Z" fill="#15A7E5"/>
<path d="M9.68291 7.39905C9.49846 7.32549 9.28968 7.41578 9.21636 7.60031L7.98573 10.6982C7.9124 10.8828 8.00245 11.0919 8.18675 11.1653C8.23033 11.1827 8.27521 11.1909 8.31942 11.1909C8.46224 11.1909 8.59731 11.105 8.65335 10.964L9.88397 7.86611C9.95725 7.68159 9.86725 7.47241 9.68291 7.39905Z" fill="#15A7E5"/>
<path d="M11.0835 11.1604C11.1305 11.1811 11.1796 11.1909 11.2279 11.1909C11.366 11.1909 11.4977 11.1106 11.5569 10.9759L12.9171 7.87799C12.9659 7.76679 12.9553 7.63837 12.889 7.53666C12.8227 7.43495 12.7095 7.37362 12.5882 7.37362H10.8861C10.6877 7.37362 10.5269 7.5346 10.5269 7.73327C10.5269 7.93194 10.6877 8.09292 10.8861 8.09292H12.0379L10.8992 10.6864C10.8194 10.8682 10.9019 11.0805 11.0835 11.1604Z" fill="#15A7E5"/>
<path d="M6.56385 11.1056C6.76224 11.1056 6.92307 10.9446 6.92307 10.7459V10.0858H7.11705C7.31543 10.0858 7.47626 9.92478 7.47626 9.7261C7.47626 9.52743 7.31543 9.36646 7.11705 9.36646H6.92307V7.73729C6.92307 7.51086 6.77718 7.31641 6.56002 7.2533C6.34296 7.19039 6.11598 7.27627 5.995 7.46741C5.55082 8.1694 4.73118 9.52643 4.72295 9.54005C4.65589 9.65111 4.65379 9.78974 4.71749 9.90276C4.78119 10.0158 4.90073 10.0857 5.03039 10.0857H6.20464V10.7459C6.20464 10.9446 6.36547 11.1056 6.56385 11.1056ZM5.66874 9.36646C5.82559 9.10856 6.019 8.79174 6.20464 8.4904V9.36646H5.66874Z" fill="#15A7E5"/>
<path d="M3.58695 9.01425C3.09698 9.71518 2.80458 10.0985 2.64748 10.3044C2.45183 10.561 2.3625 10.678 2.42362 10.8769C2.45954 10.9939 2.54805 11.0837 2.6664 11.1231C2.71401 11.1391 2.7597 11.1543 3.36385 11.1543C3.59988 11.1543 3.92121 11.1519 4.36118 11.1464C4.55956 11.1439 4.71833 10.9809 4.71584 10.7823C4.71335 10.5852 4.55305 10.4271 4.35672 10.4271C4.35519 10.4271 4.35366 10.4271 4.35213 10.4272C4.04598 10.431 3.72144 10.4336 3.45035 10.4342C3.62153 10.2048 3.85785 9.88119 4.17554 9.42674C4.37387 9.143 4.50328 8.87466 4.56014 8.62923C4.56287 8.61748 4.56502 8.60554 4.56651 8.59355L4.58178 8.47372C4.58375 8.45866 4.58471 8.44337 4.58471 8.42816C4.58471 7.79278 4.06839 7.27585 3.43378 7.27585C2.88504 7.27585 2.41006 7.66667 2.30441 8.20523C2.26619 8.40011 2.39297 8.58914 2.58766 8.62746C2.7824 8.66568 2.97111 8.53884 3.00938 8.34386C3.04904 8.14184 3.22749 7.99519 3.43378 7.99519C3.66574 7.99519 3.85564 8.17895 3.86584 8.40874L3.85636 8.48283C3.81795 8.6347 3.72738 8.81337 3.58695 9.01425Z" fill="#15A7E5"/>
<path d="M5.7156 12.912C5.7156 12.5392 5.41271 12.2359 5.04037 12.2359H3.46356C3.09127 12.2359 2.78833 12.5392 2.78833 12.912V14.4907C2.78833 14.8634 3.09122 15.1667 3.46356 15.1667H5.04037C5.41266 15.1667 5.7156 14.8635 5.7156 14.4907V12.912ZM4.99717 14.4474H3.50681V12.9552H4.99722V14.4474H4.99717Z" fill="#15A7E5"/>
<path d="M9.47439 12.912C9.47439 12.5392 9.1715 12.2359 8.79916 12.2359H7.22235C6.85006 12.2359 6.54712 12.5392 6.54712 12.912V14.4907C6.54712 14.8634 6.85001 15.1667 7.22235 15.1667H8.79916C9.17145 15.1667 9.47439 14.8635 9.47439 14.4907V12.912ZM8.75596 14.4474H7.26555V12.9552H8.75596V14.4474Z" fill="#15A7E5"/>
<path d="M13.2329 12.912C13.2329 12.5392 12.93 12.2359 12.5577 12.2359H10.9809C10.6086 12.2359 10.3057 12.5392 10.3057 12.912V14.4907C10.3057 14.8634 10.6086 15.1667 10.9809 15.1667H12.5577C12.93 15.1667 13.2329 14.8635 13.2329 14.4907V12.912ZM12.5145 14.4474H11.0241V12.9552H12.5145V14.4474Z" fill="#15A7E5"/>
<path d="M16.1924 10.3461V8.76738C16.1924 8.39464 15.8895 8.09133 15.5172 8.09133H13.9404C13.5681 8.09133 13.2651 8.39459 13.2651 8.76738V10.3461C13.2651 10.7189 13.568 11.0222 13.9404 11.0222H15.5172C15.8895 11.0222 16.1924 10.7189 16.1924 10.3461ZM15.474 10.3029H13.9836V8.81068H15.474V10.3029Z" fill="#15A7E5"/>
<path d="M17.6774 8.09138C17.3051 8.09138 17.0022 8.39464 17.0022 8.76743V10.3462C17.0022 10.7189 17.3051 11.0222 17.6774 11.0222H19.2542C19.6265 11.0222 19.9295 10.719 19.9295 10.3462V8.76743C19.9295 8.39469 19.6266 8.09138 19.2542 8.09138H17.6774ZM19.211 10.3029H17.7206V8.81068H19.211V10.3029Z" fill="#15A7E5"/>
<path d="M3.46356 18.7089H5.04037C5.41266 18.7089 5.7156 18.4056 5.7156 18.0329V16.4541C5.7156 16.0814 5.41271 15.7781 5.04037 15.7781H3.46356C3.09127 15.7781 2.78833 16.0813 2.78833 16.4541V18.0329C2.78838 18.4056 3.09127 18.7089 3.46356 18.7089ZM3.50681 16.4974H4.99722V17.9895H3.50681V16.4974Z" fill="#15A7E5"/>
<path d="M7.22235 18.7089H8.79916C9.17145 18.7089 9.47439 18.4056 9.47439 18.0329V16.4541C9.47439 16.0814 9.1715 15.7781 8.79916 15.7781H7.22235C6.85006 15.7781 6.54712 16.0813 6.54712 16.4541V18.0329C6.54717 18.4056 6.85006 18.7089 7.22235 18.7089ZM7.2656 16.4974H8.75601V17.9895H7.2656V16.4974Z" fill="#15A7E5"/>
<path d="M12.5577 15.7781H10.9809C10.6086 15.7781 10.3057 16.0813 10.3057 16.4541V18.0329C10.3057 18.4056 10.6086 18.7089 10.9809 18.7089H12.5577C12.93 18.7089 13.2329 18.4056 13.2329 18.0329V16.4541C13.2329 16.0814 12.93 15.7781 12.5577 15.7781ZM12.5145 17.9896H11.0241V16.4974H12.5145V17.9896Z" fill="#15A7E5"/>
<path d="M20.9674 6.18779V5.46849H18.8925C18.6941 5.46849 18.5333 5.62947 18.5333 5.82814C18.5333 6.02681 18.6941 6.18779 18.8925 6.18779H20.9674Z" fill="#15A7E5"/>
<path fill-rule="evenodd" clip-rule="evenodd" d="M5.46776 2.50944V3.27636C5.46776 3.83122 5.91865 4.28265 6.47285 4.28265C7.02705 4.28265 7.47793 3.83122 7.47793 3.27636V1.79019V1.0063C7.47793 0.451432 7.02705 0 6.47285 0C5.91865 0 5.46776 0.451432 5.46776 1.0063V1.79019V2.50944ZM6.47285 0.719298C6.31479 0.719298 6.18619 0.848005 6.18619 1.0063V3.2764C6.18619 3.43465 6.31479 3.5634 6.47285 3.5634C6.6309 3.5634 6.7595 3.4347 6.7595 3.2764V1.0063C6.7595 0.848053 6.6309 0.719298 6.47285 0.719298Z" fill="#15A7E5"/>
<path fill-rule="evenodd" clip-rule="evenodd" d="M14.6919 1.79019V3.27636C14.6919 3.83122 15.1428 4.28265 15.697 4.28265C16.2512 4.28265 16.7021 3.83122 16.7021 3.27636V2.50944V1.79014V1.0063C16.7021 0.451432 16.2512 0 15.697 0C15.1428 0 14.6919 0.451432 14.6919 1.0063V1.79019ZM15.697 0.719298C15.539 0.719298 15.4104 0.848005 15.4104 1.0063V3.2764C15.4104 3.43465 15.5389 3.5634 15.697 3.5634C15.855 3.5634 15.9836 3.4347 15.9836 3.2764V1.0063C15.9836 0.848053 15.8551 0.719298 15.697 0.719298Z" fill="#15A7E5"/>
<path d="M1.20239 6.18779H17.3617C17.5601 6.18779 17.7209 6.02681 17.7209 5.82814C17.7209 5.62947 17.5601 5.46849 17.3617 5.46849H1.20239V6.18779Z" fill="#15A7E5"/>
<path d="M25.8932 17.2916L25.8932 17.2916C25.8802 17.244 25.7956 16.9818 25.6729 16.6731C25.5513 16.3671 25.3863 15.9997 25.2093 15.7475C24.1633 14.1049 22.3784 13.1239 20.4348 13.1239C17.3142 13.1239 14.776 15.6655 14.776 18.7893C14.776 21.9132 17.3142 24.4546 20.4348 24.4546C23.5553 24.4546 26.0935 21.9131 26.0935 18.7892C26.0935 18.2821 26.0261 17.7783 25.8932 17.2916ZM24.9087 17.5526L24.9108 17.5656L24.9142 17.5729C24.9767 17.8042 25.0209 18.0406 25.0469 18.2796H24.6424C24.3609 18.2796 24.1332 18.5079 24.1332 18.7892C24.1332 19.0706 24.3609 19.2989 24.6424 19.2989H25.0472C24.9488 20.1983 24.5928 21.0214 24.0547 21.6926L23.7701 21.4077C23.5713 21.2087 23.2487 21.2085 23.0499 21.4077C22.851 21.6067 22.851 21.9293 23.0498 22.1283C23.0498 22.1283 23.0498 22.1283 23.0498 22.1283L23.3347 22.4135C22.6643 22.9524 21.8422 23.3088 20.9439 23.4074V23.0018C20.9439 22.7205 20.7162 22.4922 20.4347 22.4922C20.1533 22.4922 19.9255 22.7205 19.9255 23.0018V23.4074C19.0272 23.3088 18.2052 22.9524 17.5348 22.4135L17.8197 22.1283L17.8197 22.1283C18.0185 21.9292 18.0185 21.6067 17.8197 21.4076L17.8197 21.4076C17.6208 21.2086 17.2983 21.2086 17.0994 21.4076L17.0994 21.4076L16.8148 21.6926C16.2767 21.0214 15.9207 20.1983 15.8223 19.2989H16.2272C16.5086 19.2989 16.7364 19.0706 16.7364 18.7892C16.7364 18.5079 16.5086 18.2796 16.2272 18.2796H15.8223C15.9207 17.3801 16.2767 16.557 16.8148 15.8858L17.0994 16.1708C17.1988 16.2703 17.3294 16.3201 17.4595 16.3201C17.5897 16.3201 17.7203 16.2703 17.8197 16.1707C18.0185 15.9717 18.0185 15.6491 17.8197 15.4501C17.8197 15.4501 17.8196 15.4501 17.8196 15.4501L17.5348 15.1649C18.2052 14.6261 19.0272 14.2697 19.9255 14.171V14.5766C19.9255 14.8579 20.1533 15.0862 20.4348 15.0862C20.7162 15.0862 20.944 14.8579 20.944 14.5766V14.1713C21.8293 14.2678 22.6558 14.6139 23.3373 15.1623L23.0498 15.4501L23.0498 15.4501C22.851 15.6492 22.851 15.9717 23.0498 16.1708L23.0498 16.1708C23.1493 16.2703 23.2799 16.3201 23.41 16.3201C23.5401 16.3201 23.6707 16.2703 23.7701 16.1708L23.7701 16.1708L24.0563 15.8843C24.1615 16.0158 24.2604 16.1536 24.352 16.2977L24.352 16.2978C24.3537 16.3004 24.3563 16.3044 24.3597 16.3096C24.3922 16.3598 24.4993 16.5251 24.6124 16.7429C24.6894 16.8912 24.7666 17.059 24.8247 17.2272C24.8478 17.323 24.8755 17.4308 24.9087 17.5526Z" fill="#15A7E5" stroke="#15A7E5" stroke-width="0.3"/>
<path d="M13.2234 19.909H0.973633V2.2481H21.0632V11.5691" stroke="#15A7E5" stroke-width="1.5" stroke-linecap="round"/>
</svg>
