<svg width="31" height="35" viewBox="0 0 31 35" fill="none" xmlns="http://www.w3.org/2000/svg">
<path d="M6.35219 2.05882C6.77614 0.859353 7.92007 0 9.26471 0H15.4412C16.7858 0 17.9297 0.859353 18.3536 2.05882H21.6176C23.3232 2.05882 24.7059 3.44147 24.7059 5.14706V14.838C24.0423 14.6503 23.3541 14.5216 22.6471 14.4579V5.14706C22.6471 4.57854 22.1861 4.11765 21.6176 4.11765H18.3536C17.9297 5.31712 16.7858 6.17647 15.4412 6.17647H9.26471C7.92007 6.17647 6.77614 5.31712 6.35219 4.11765H3.08824C2.51971 4.11765 2.05882 4.57854 2.05882 5.14706V29.8529C2.05882 30.4214 2.51971 30.8824 3.08824 30.8824H11.5288C11.9054 31.619 12.3601 32.3089 12.8825 32.9412H3.08824C1.38264 32.9412 0 31.5585 0 29.8529V5.14706C0 3.44147 1.38264 2.05882 3.08824 2.05882H6.35219ZM9.26471 2.05882C8.69618 2.05882 8.23529 2.51971 8.23529 3.08824C8.23529 3.65676 8.69618 4.11765 9.26471 4.11765H15.4412C16.0096 4.11765 16.4706 3.65676 16.4706 3.08824C16.4706 2.51971 16.0096 2.05882 15.4412 2.05882H9.26471ZM30.8824 25.7353C30.8824 30.8521 26.7344 35 21.6176 35C16.5009 35 12.3529 30.8521 12.3529 25.7353C12.3529 20.6185 16.5009 16.4706 21.6176 16.4706C26.7344 16.4706 30.8824 20.6185 30.8824 25.7353ZM26.4633 21.9191C26.0612 21.5172 25.4094 21.5172 25.0073 21.9191L19.5588 27.3677L18.228 26.0367C17.8259 25.6348 17.1741 25.6348 16.772 26.0367C16.3701 26.4388 16.3701 27.0906 16.772 27.4927L18.8308 29.5515C19.2329 29.9534 19.8847 29.9534 20.2868 29.5515L26.4633 23.3751C26.8652 22.973 26.8652 22.3211 26.4633 21.9191Z" fill="#15A7E5"/>
</svg>
