<svg width="121" height="38" viewBox="0 0 121 38" fill="none" xmlns="http://www.w3.org/2000/svg">
<g clip-path="url(#clip0_459_15)">
<path d="M9.45801 1.76061C7.11623 3.00087 4.7282 4.23693 2.73117 6.31384C0.872885 8.20996 0.389393 11.4431 1.50773 13.8815C2.70972 16.2556 4.2695 18.4308 6.13243 20.3309C4.88346 13.9427 6.06975 7.31836 9.45801 1.76061Z" fill="#37A58C"/>
<path d="M7.51172 21.5669C9.81146 23.0258 12.1112 24.4427 14.7851 25.0607C17.7029 25.725 20.402 24.5309 22.1258 22.185C23.468 19.9716 24.5167 17.5931 25.2453 15.1092C20.3395 19.3864 14.0192 21.6879 7.51172 21.5669Z" fill="#DD0060"/>
<path d="M24.7995 3.74923C24.2421 2.72844 23.4427 1.86001 22.4714 1.2201C21.5002 0.580188 20.3868 0.188333 19.2289 0.0788973C16.6105 -0.0212864 13.9909 0.246187 11.4468 0.873505C17.194 2.74441 22.9497 7.50785 25.8632 13.0365C25.9936 9.85383 26.1365 6.44837 24.7995 3.74923Z" fill="#505050"/>
<path d="M119.648 35.3948C119.997 34.4358 120.148 33.4162 120.093 32.3971V13.0575H113.471V32.2458C113.474 32.428 113.441 32.609 113.374 32.7784C113.307 32.9477 113.207 33.1022 113.08 33.233C112.953 33.3638 112.802 33.4683 112.634 33.5406C112.467 33.6129 112.287 33.6515 112.105 33.6542H111.962C111.602 33.6785 111.247 33.5596 110.975 33.3233C110.702 33.087 110.534 32.7526 110.507 32.3929V13.0533H103.915V32.3929C103.851 33.4117 103.994 34.4328 104.336 35.3948C104.606 35.9702 104.999 36.4791 105.488 36.8852C105.977 37.2914 106.55 37.5849 107.165 37.745C107.757 37.8558 108.358 37.9066 108.96 37.8963H115.01C115.615 37.9077 116.219 37.8599 116.814 37.7534C117.431 37.5943 118.006 37.3003 118.496 36.8924C118.986 36.4846 119.379 35.9731 119.648 35.3948Z" fill="black"/>
<path d="M88.4269 13.0449C86.2869 13.0449 84.7944 14.8948 84.8112 17.1062V37.8963H91.538V27.5748H94.2792V37.8963H100.972V13.0449H88.4269ZM94.2708 23.3117H91.5422V18.2666C91.5422 17.3458 91.887 17.0053 92.7236 17.0053H94.2708V23.3117Z" fill="black"/>
<path d="M75.1119 13.0449V23.3117H72.1689V13.0449H65.4126V37.8963H72.1815V27.5748H75.0824V37.8963H81.8597V13.0449H75.1119Z" fill="black"/>
<path d="M57.9039 17.8546H62.4949V13.0449H51.1182V37.8963H62.5033V33.0824H57.8786V27.5748H61.8012V23.3117H57.8786L57.9039 17.8546Z" fill="black"/>
<path d="M44.8115 25.3087C45.7458 25.1359 46.5915 24.6448 47.2046 23.919C47.8178 23.1931 48.1607 22.2774 48.1749 21.3273V17.123C48.1371 14.8737 46.4932 13.0617 44.7022 13.0617H31.896V37.8963H38.5682V27.5748H40.2499C41.0907 27.5748 41.4229 27.9658 41.4229 28.8655V37.8963H48.1749V29.349C48.1749 27.1544 46.4049 25.4937 44.8115 25.3087ZM41.3934 22.0841C41.4187 22.8324 41.1034 23.2781 40.5526 23.3453H38.5598V17.0389H40.2415C41.0823 17.0389 41.4271 17.4594 41.4145 18.3002L41.3934 22.0841Z" fill="black"/>
</g>
<defs>
<clipPath id="clip0_459_15">
<rect width="119.195" height="37.8469" fill="white" transform="translate(0.910645 0.0578766)"/>
</clipPath>
</defs>
</svg>
