<svg width="26" height="27" viewBox="0 0 26 27" fill="none" xmlns="http://www.w3.org/2000/svg">
<path d="M11.6166 0.0623379C9.60849 0.384619 8.3436 1.23437 7.68342 2.72265C7.29513 3.58909 7.17873 4.40546 7.17873 6.31616V7.68243L6.93471 7.88789C6.77377 8.02112 6.61856 8.22659 6.50188 8.46542C6.33 8.82081 6.3188 8.87634 6.3188 9.42624C6.3188 9.88723 6.34667 10.0927 6.45187 10.3983C6.74589 11.2814 7.26726 12.1366 7.8553 12.7032C8.13811 12.9754 8.19358 13.0698 8.36573 13.5475C8.57641 14.1584 8.82617 14.6306 9.20353 15.1414C9.3478 15.3359 9.45328 15.4968 9.44207 15.508C9.43114 15.5192 9.07592 15.6968 8.64882 15.9134C7.77223 16.3523 7.3506 16.5356 5.54222 17.2575C3.21219 18.1907 2.77963 18.4572 2.21373 19.3182C1.32621 20.6456 0.660562 23.0728 0.621761 25.1167C0.605092 25.972 0.660562 26.161 1.00459 26.4885C1.36528 26.8329 0.455349 26.8105 13.0979 26.8105C24.1316 26.8105 24.6365 26.805 24.8472 26.7049C25.1412 26.5717 25.4629 26.2051 25.5462 25.9107C25.635 25.5829 25.5795 24.4054 25.4353 23.5614C25.0248 21.1843 24.3259 19.5182 23.355 18.6017C22.9722 18.2351 22.4784 18.0017 20.3539 17.1465C19.4994 16.802 18.3179 16.2912 17.7298 16.0023L16.6592 15.4804L16.9644 15.0527C17.3027 14.5641 17.5913 14.0085 17.7798 13.481C17.8741 13.2088 17.9962 13.02 18.2791 12.7147C19.039 11.8816 19.6103 10.943 19.7992 10.2043C19.8658 9.94879 19.888 9.69901 19.8713 9.34335C19.8434 8.73244 19.6661 8.31577 19.2666 7.9158L19.0059 7.6548L18.9783 5.91646C18.9562 4.60572 18.9283 4.0892 18.8674 3.81698C18.3681 1.7342 17.1975 0.61771 15.0284 0.140036C14.3737 -0.00441551 12.3323 -0.0487366 11.6166 0.0623379ZM14.3904 1.90081C15.3279 2.03979 15.9493 2.32295 16.3873 2.80062C16.9032 3.36721 17.103 3.96691 17.1472 5.10556L17.1806 5.86639L16.992 5.88308L16.8035 5.89977L16.7868 6.49973C16.7756 6.9495 16.7535 7.0997 16.7035 7.07727C16.6647 7.06058 16.4261 6.95498 16.1655 6.8439C15.0282 6.35528 13.5581 6.16624 12.1046 6.32191C11.2117 6.41629 10.5624 6.60506 9.46967 7.07727C9.41967 7.09943 9.39754 6.9495 9.38661 6.49973L9.36994 5.89977L9.18139 5.88308L8.99285 5.86639L9.02619 5.16109C9.12046 3.08378 9.91945 2.16181 11.8721 1.87865C12.4099 1.80068 13.8188 1.8119 14.3904 1.90081ZM13.9464 8.14916C14.6732 8.23808 15.1779 8.39922 16.0266 8.80466C16.7756 9.16579 16.8199 9.17674 17.247 9.18248C17.491 9.18248 17.7741 9.20465 17.8738 9.2268C18.0348 9.26565 18.0514 9.28781 18.0514 9.4878C18.0514 9.99885 17.591 10.7764 16.8032 11.5873C16.304 12.1038 16.2761 12.1426 16.1321 12.5927C15.6826 14.0257 14.8563 14.9419 13.7524 15.2363C13.3362 15.3529 12.6372 15.3362 12.2101 15.2029C11.2947 14.9198 10.4739 14.0476 10.091 12.9369C10.0077 12.7035 9.90251 12.3982 9.8525 12.2592C9.79157 12.0759 9.63608 11.8759 9.28659 11.5372C8.76523 11.0207 8.4212 10.4987 8.23813 9.94304C8.08292 9.48206 8.08838 9.28207 8.24933 9.22106C8.316 9.1989 8.59882 9.17674 8.8707 9.17674H9.36994L10.1465 8.80466C10.5736 8.59921 11.1116 8.38253 11.3393 8.32152C12.1213 8.10457 13.081 8.04356 13.9464 8.14916ZM11.5499 16.9079L12.1434 17.1188H13.0588C14.0076 17.1134 14.174 17.0855 14.9727 16.7577C15.1337 16.691 15.1779 16.7076 15.8326 17.0855C16.2097 17.3021 16.5371 17.4797 16.5649 17.4797C16.5871 17.4797 16.6092 18.1519 16.6092 18.9792V20.4787H13.0867H9.56395V18.9901V17.4961L9.77462 17.4017C9.88556 17.3517 10.1908 17.1738 10.4515 17.0072C10.7122 16.8461 10.934 16.7074 10.9398 16.7074C10.951 16.7022 11.2283 16.7968 11.5499 16.9079ZM7.73343 19.4183V20.468L7.51701 20.5069C7.07871 20.5791 6.64616 20.99 6.51855 21.451C6.47975 21.59 6.45761 22.2841 6.45761 23.3229V24.978H4.46068H2.46348V24.8336C2.46348 24.5781 2.62989 23.5338 2.77417 22.8674C3.14033 21.2012 3.7117 20.0902 4.37734 19.7403C4.59922 19.6238 7.61156 18.3795 7.69463 18.374C7.71676 18.3686 7.73343 18.8408 7.73343 19.4183ZM19.971 18.974C21.8849 19.746 22.1013 19.8571 22.3508 20.1849C22.7612 20.7236 23.2329 21.9344 23.4769 23.0898C23.5878 23.6063 23.7654 24.7116 23.7654 24.8894C23.7654 24.9671 23.5711 24.9783 21.7406 24.9783H19.7158V23.24C19.7158 21.6182 19.7046 21.4904 19.5994 21.257C19.5385 21.1181 19.433 20.946 19.3663 20.8738C19.2221 20.7181 18.7395 20.4792 18.5673 20.4792H18.4397V19.424C18.4397 18.8408 18.4509 18.3688 18.4619 18.3688C18.4731 18.3686 19.1554 18.6408 19.971 18.974ZM17.885 23.6449V24.978H13.0867H8.28813V23.6451V22.3123H13.0867H17.8853L17.885 23.6449Z" fill="#15A7E5"/>
</svg>
