<svg width="25" height="25" viewBox="0 0 25 25" fill="none" xmlns="http://www.w3.org/2000/svg">
<g clip-path="url(#clip0_489_13)">
<path d="M15.8398 0.809076V0.94182V3.01676C15.8398 3.03969 15.8389 3.06272 15.8404 3.08555C15.8455 3.16455 15.8565 3.17841 15.9371 3.17917C16.1502 3.18113 16.3633 3.18084 16.5764 3.17922C16.61 3.17898 16.6431 3.1647 16.6628 3.13757C16.6904 3.09964 16.6849 3.05684 16.6849 3.015C16.685 2.31956 16.6851 1.62407 16.6846 0.928589C16.6846 0.891426 16.6799 0.854216 16.6768 0.809076H15.8398ZM0.700835 21.4681C0.746739 21.4709 0.783758 21.475 0.820873 21.4752C0.988774 21.4759 1.15667 21.4755 1.32462 21.4755C1.44027 21.4755 1.53408 21.382 1.53408 21.2663C1.53413 18.7447 1.53413 16.2231 1.53413 13.7014C1.53413 13.6632 1.53527 13.6249 1.53327 13.5868C1.52844 13.4948 1.50618 13.472 1.41629 13.4694C1.354 13.4676 1.29157 13.4689 1.22918 13.469C1.10867 13.4692 0.987914 13.468 0.867398 13.4691C0.706042 13.4705 0.696535 13.4595 0.693287 13.5767C0.693048 13.5844 0.693144 13.592 0.693144 13.5997C0.693192 16.1824 0.69324 18.7653 0.693574 21.348C0.693622 21.385 0.697969 21.4221 0.700835 21.4681ZM23.6996 21.4662C23.7053 21.4483 23.7104 21.4378 23.7117 21.4268C23.7141 21.408 23.7147 21.3888 23.7147 21.3697C23.7146 18.7574 23.7144 16.145 23.7138 13.5326C23.7138 13.5216 23.7088 13.5105 23.7058 13.4996C23.7048 13.496 23.7031 13.4923 23.7007 13.4894C23.6984 13.4865 23.6949 13.4846 23.6816 13.4739C23.655 13.4726 23.6176 13.4693 23.5801 13.4692C23.4158 13.4686 23.2516 13.4712 23.0874 13.4683C22.8927 13.465 22.8704 13.4633 22.8706 13.6843C22.8721 16.2166 22.8716 18.7487 22.8716 21.2809C22.8716 21.3038 22.8704 21.3268 22.8717 21.3496C22.8771 21.4503 22.9022 21.4748 23.0056 21.4753C23.208 21.4761 23.4104 21.4759 23.6128 21.4751C23.6424 21.4749 23.672 21.4691 23.6996 21.4662ZM15.1119 0.804155C15.077 0.801815 15.047 0.798042 15.0169 0.798042C14.1652 0.797756 13.3135 0.798138 12.4618 0.797613C12.2914 0.797468 12.1298 0.84729 11.978 0.910868C11.7255 1.01662 11.5089 1.1861 11.3379 1.41223C11.1237 1.69558 11.0164 2.04581 11.0147 2.401C11.0108 3.19441 11.0135 3.98782 11.0138 4.78122C11.0138 4.8182 11.0177 4.85517 11.02 4.89692H13.3947C13.3947 4.84853 13.3946 4.80754 13.3947 4.76646C13.3954 4.354 13.3955 3.94153 13.398 3.52906C13.3983 3.48617 13.4068 3.44332 13.4248 3.40444C13.4938 3.25636 13.6045 3.17702 13.7782 3.17936C14.1791 3.18481 14.5803 3.18103 14.9813 3.18103H15.1014C15.1344 3.077 15.1428 0.956627 15.1119 0.804155ZM18.3788 22.2855H18.529C19.6869 22.2854 20.8447 22.2859 22.0026 22.2849C22.1585 22.2847 22.1858 22.3267 22.1858 22.1037C22.185 19.0162 22.1853 15.9286 22.1853 12.841C22.1853 12.8104 22.1842 12.7799 22.1845 12.7493C22.185 12.6932 22.153 12.6652 22.1018 12.6575C22.0718 12.653 22.0408 12.6535 22.0103 12.6535C20.8602 12.6534 19.7099 12.654 18.5598 12.653C18.3457 12.6528 18.3602 12.6567 18.3602 12.8553C18.3602 15.9314 18.3602 19.0075 18.3603 22.0836C18.3603 22.1219 18.3588 22.1602 18.3615 22.1983C18.3633 22.2238 18.3713 22.2489 18.3788 22.2855ZM17.1307 0.0705509C17.1897 0.0760441 17.2032 0.0867939 17.2244 0.100838C17.2705 0.139002 17.2828 0.153618 17.3152 0.205111C17.351 0.259089 17.3621 0.311108 17.3685 0.373442C17.3694 0.445713 17.3747 0.522379 17.3747 0.591116C17.3751 1.51196 17.3751 2.43286 17.3747 3.35371C17.3747 3.42632 17.3726 3.49897 17.3689 3.57143C17.361 3.72519 17.2543 3.84227 17.1033 3.85918C17.0126 3.86935 16.921 3.87747 16.8297 3.87762C15.9814 3.879 15.1331 3.87838 14.2848 3.87852C14.1096 3.87857 14.1095 3.87896 14.1094 4.05589C14.1093 4.29281 14.1091 4.52968 14.1098 4.76661C14.11 4.80735 14.1137 4.84609 14.113 4.90212C14.1673 4.90212 14.2176 4.90198 14.2622 4.90198C15.4735 4.90198 16.6848 4.90212 17.8961 4.90164C17.9842 4.9016 18.07 4.90365 18.1502 4.94898C18.2387 4.99904 18.3028 5.06099 18.3291 5.1668C18.3555 5.2726 18.3585 5.37754 18.3585 5.48426C18.3585 6.44714 18.3596 7.41007 18.357 8.373C18.3567 8.47508 18.3418 8.57864 18.3204 8.67866C18.3021 8.76359 18.2411 8.83352 18.1694 8.86772C18.023 8.93751 17.8418 8.90804 17.7294 8.77816C17.6679 8.70708 17.6499 8.62813 17.65 8.53703C17.6514 7.61996 17.6508 6.70293 17.6507 5.78586V5.64222C17.5515 5.61695 6.90283 5.61289 6.76689 5.63773V5.79183C6.76694 10.018 6.76698 14.2441 6.76684 18.4703C6.76679 18.5569 6.77148 18.6419 6.71931 18.7224C6.64924 18.8307 6.48502 18.9154 6.3741 18.8976C6.22717 18.8739 6.10541 18.7642 6.08038 18.6207C6.0673 18.546 6.06113 18.4691 6.06109 18.3932C6.06013 16.5515 6.05994 14.7097 6.06104 12.868C6.06118 12.6315 6.04723 12.6516 5.84838 12.6516C4.70207 12.6518 3.55572 12.6516 2.40941 12.6517C2.3827 12.6517 2.35577 12.6507 2.32925 12.6533C2.2481 12.6615 2.23114 12.6796 2.22794 12.7599C2.22675 12.7904 2.22761 12.821 2.22761 12.8516V22.091V22.2726C2.32897 22.2848 2.37683 22.311 2.50184 22.2103C3.45072 21.4452 4.94573 21.4768 5.89042 22.247C5.95089 22.2963 5.97988 22.2853 6.02741 22.2811C6.07226 22.2337 6.05984 22.174 6.05994 22.1188C6.0607 21.5342 6.05946 20.9495 6.06133 20.3649C6.06156 20.2815 6.06816 20.1966 6.08411 20.1149C6.12199 19.9209 6.34764 19.816 6.53302 19.8866C6.63367 19.9249 6.70059 19.9866 6.74014 20.0787C6.76006 20.1251 6.76565 20.1806 6.76579 20.232C6.76746 20.8548 6.76689 21.4776 6.76699 22.1005C6.76699 22.1349 6.76603 22.1693 6.7678 22.2037C6.76899 22.2257 6.77434 22.2476 6.77931 22.2786C6.82368 22.2811 6.86452 22.2853 6.90537 22.2853C10.4399 22.2856 13.9744 22.2856 17.5089 22.2855C17.5318 22.2855 17.5547 22.2847 17.5777 22.2847C17.6246 22.2847 17.6478 22.2599 17.6496 22.2145C17.6509 22.1801 17.6507 22.1457 17.6507 22.1113V10.4302C17.6507 10.3499 17.65 10.2697 17.6519 10.1895C17.6571 9.96512 17.9138 9.80582 18.1205 9.88936C18.3186 9.96942 18.3551 10.1365 18.3571 10.3147C18.3627 10.8114 18.3585 11.3082 18.3591 11.805C18.3591 11.8533 18.3664 11.9017 18.3715 11.9655H18.5144C19.8212 11.9655 21.128 11.9654 22.4348 11.9655C22.4807 11.9655 22.5266 11.9655 22.5724 11.9671C22.7299 11.9729 22.8526 12.0837 22.8659 12.2395C22.8763 12.3611 22.8768 12.4834 22.8837 12.6053C22.8866 12.6576 22.8943 12.7097 22.9009 12.7714C22.9521 12.7739 22.9929 12.7774 23.0337 12.7775C23.3547 12.778 23.6761 12.7867 23.9966 12.7747C24.2099 12.7764 24.4219 12.9056 24.4219 13.1009V21.7884C24.4219 21.9877 24.2743 22.1672 24.0768 22.1596C23.7645 22.1522 23.3285 22.1556 23.0157 22.1561C22.89 22.1563 22.8721 22.1741 22.8717 22.3033C22.8709 22.5856 22.8715 22.8679 22.8714 23.1501C22.8713 23.4591 22.868 23.7682 22.8723 24.0771C22.8749 24.2673 22.8223 24.3922 22.6445 24.504C22.6337 24.5144 22.5914 24.5348 22.5488 24.5348H20.4324C20.3904 24.5258 20.367 24.5118 20.3269 24.488C20.2452 24.4278 20.2384 24.4158 20.2014 24.3092C20.1503 24.156 20.2305 23.9374 20.3567 23.877C20.431 23.8415 20.5091 23.8173 20.5974 23.818C21.0787 23.8222 21.5602 23.8202 22.0417 23.8197C22.0857 23.8197 22.1298 23.8158 22.1841 23.8133C22.1841 23.5515 22.1843 23.3038 22.1839 23.0561C22.1838 23.0085 22.1518 22.9878 22.1105 22.9836C22.0612 22.9787 22.0114 22.978 21.9618 22.978C15.4545 22.9777 8.94721 22.9778 2.43993 22.9778C2.40172 22.9778 2.36307 22.9754 2.32548 22.9804C2.29348 22.9846 2.26195 22.9729 2.23319 22.9814L2.23396 23.82H2.40869C7.83462 23.82 13.2606 23.82 18.6865 23.82C18.7438 23.82 18.8013 23.8181 18.8584 23.8212C18.9567 23.8266 19.1127 23.9061 19.1663 23.984C19.2596 24.1198 19.2649 24.2869 19.1489 24.4316C19.0947 24.504 19.0234 24.5311 18.9322 24.5333C18.8904 24.5344 18.8583 24.5348 18.8552 24.5348H1.90403C1.86429 24.5348 1.76952 24.4981 1.75319 24.4885C1.68727 24.4498 1.63372 24.4034 1.59293 24.3351C1.53857 24.2442 1.53561 24.1469 1.53527 24.049C1.53312 23.4725 1.53389 22.8962 1.53322 22.3198C1.53303 22.1645 1.52424 22.1561 1.37377 22.1559C1.03406 22.1556 0.69429 22.1529 0.35462 22.1566C0.196942 22.1583 0.0884638 22.0938 0.0199184 21.953C0.0119891 21.9366 0.0208254 18.9911 0.00171866 18.8179L0 18.7974C0.000668736 17.6749 0.0110337 15.3865 0.0141385 13.4684C0.0135653 13.0059 0.0135645 13.0059 0.0195831 12.9888C0.0510137 12.8993 0.117983 12.8425 0.198327 12.8113C0.263051 12.7861 0.33838 12.7802 0.409075 12.7795C0.739478 12.7764 1.06988 12.7786 1.40029 12.7778C1.47069 12.7776 1.53097 12.7227 1.53317 12.6523C1.53403 12.6256 1.53241 12.5988 1.53355 12.5721C1.53857 12.4541 1.5411 12.3358 1.55056 12.2181C1.55777 12.1283 1.61705 12.0698 1.68627 12.0186C1.76274 11.9619 1.8503 11.9662 1.93747 11.9662C3.25521 11.9661 4.57301 11.9662 5.8908 11.9663C5.93637 11.9663 6.0276 11.9607 6.06968 11.9607C6.06753 11.8586 6.06792 11.8073 6.06797 11.7298C6.06868 9.60615 6.06768 7.48244 6.06792 5.35872C6.06792 5.29806 6.0769 5.23716 6.08454 5.17673C6.09338 5.10699 6.13021 5.05268 6.18151 5.00874C6.26562 4.93675 6.37601 4.90298 6.48678 4.90313C7.70675 4.90508 8.92671 4.90437 10.1466 4.90413C10.1949 4.90408 10.2431 4.90112 10.3036 4.89916V4.76207C10.3037 4.07833 10.3048 3.3946 10.3034 2.71091C10.3027 2.40969 10.3176 2.11115 10.3826 1.81509C10.4103 1.68865 10.4575 1.57139 10.5059 1.45426C10.577 1.28249 10.6789 1.12816 10.7887 0.977453C10.9356 0.775829 11.1171 0.610413 11.3206 0.474277C11.579 0.301361 11.7675 0.169477 12.0758 0.0992126C12.0712 0.100073 12.2163 0.0705509 12.27 0.0705509H17.1307Z" fill="#15A7E5"/>
<path d="M16.0947 11.0808H14.677C14.6445 11.2414 14.6552 11.8355 14.6916 11.915C14.709 11.9164 14.7278 11.9193 14.7466 11.9193C15.163 11.9196 15.5793 11.9195 15.9957 11.9194C16.0071 11.9194 16.0186 11.9182 16.03 11.919C16.0722 11.9223 16.0933 11.8971 16.1039 11.8616C16.1104 11.84 16.1143 11.8168 16.1144 11.7943C16.1151 11.5918 16.1155 11.3894 16.1136 11.187C16.1134 11.1536 16.1021 11.1204 16.0947 11.0808ZM15.3776 12.5988C15.0951 12.5988 14.8126 12.5993 14.5301 12.5986C14.3134 12.5981 14.1574 12.4874 14.043 12.3149C13.9714 12.2071 13.9364 12.084 13.9368 11.952C13.9378 11.6427 13.9337 11.3334 13.9382 11.0241C13.9423 10.7411 14.0806 10.5352 14.3353 10.4194C14.4259 10.3782 14.5348 10.3618 14.6357 10.3606C15.1321 10.3549 15.6286 10.3534 16.125 10.3601C16.3762 10.3635 16.5932 10.4509 16.7257 10.6833C16.7725 10.7653 16.8109 10.849 16.8102 10.9486C16.8074 11.3113 16.8159 11.6743 16.8063 12.0368C16.8 12.2755 16.6612 12.4383 16.456 12.5494C16.3358 12.6143 16.2044 12.6024 16.0764 12.6051C15.8436 12.6098 15.6106 12.6064 15.3776 12.6064V12.5988Z" fill="#15A7E5"/>
<path d="M9.77546 11.0804H8.3265C8.32411 11.1306 8.32783 11.1572 8.32755 11.1936C8.32573 11.3921 8.32683 11.5907 8.32659 11.7892C8.3265 11.8791 8.35258 11.9227 8.46483 11.9213C8.86951 11.9166 9.27433 11.9198 9.67906 11.9194C9.70858 11.9194 9.73801 11.9249 9.77546 11.9214V11.0804ZM9.0579 12.5977C8.76395 12.5977 8.46989 12.5951 8.17598 12.5986C7.98205 12.601 7.74933 12.4037 7.67395 12.2273C7.63631 12.1391 7.62996 12.052 7.62991 11.9612C7.62967 11.6213 7.63092 11.2814 7.63092 10.9415C7.63092 10.6902 7.89273 10.4244 8.10882 10.3891C8.23789 10.368 8.36552 10.3575 8.49545 10.3577C8.91561 10.3585 9.33572 10.3573 9.75582 10.3582C9.88991 10.3585 10.0219 10.3768 10.1432 10.4377C10.3005 10.5168 10.4028 10.6389 10.4619 10.8094C10.4984 10.9147 10.5025 11.0169 10.5028 11.1229C10.5036 11.4017 10.5084 11.6806 10.5015 11.9592C10.494 12.2596 10.3407 12.4859 10.0522 12.5826C9.95439 12.6154 9.84052 12.6044 9.73395 12.6059C9.51971 12.6075 9.57293 12.6073 9.33882 12.6009C9.33882 12.5979 9.05795 12.6008 9.0579 12.5977Z" fill="#15A7E5"/>
<path d="M4.16136 15.707C3.92482 15.707 3.68814 15.7022 3.45179 15.7085C3.26234 15.7136 3.03043 15.5255 3.09573 15.2478C3.12616 15.1186 3.27385 15.0117 3.43994 14.9921C3.46635 14.989 3.49325 14.9892 3.5199 14.9892C3.9434 14.9888 4.3669 14.9887 4.79036 14.9885C4.90251 14.9884 5.01171 15.001 5.10256 15.0749C5.31316 15.246 5.27466 15.5424 5.044 15.6643C4.97966 15.6982 4.91732 15.7079 4.84811 15.7075C4.61916 15.7062 4.39026 15.707 4.16136 15.707Z" fill="#15A7E5"/>
<path d="M4.16413 13.4548C4.40459 13.4548 4.64509 13.4555 4.88555 13.4546C5.08718 13.454 5.22236 13.606 5.24333 13.7916C5.25947 13.9347 5.14201 14.0957 4.99804 14.1314C4.92171 14.1504 4.84199 14.165 4.7637 14.1656C4.34005 14.1689 3.91632 14.1692 3.49267 14.1657C3.37889 14.1647 3.27184 14.1381 3.1851 14.0487C3.02952 13.8884 3.06048 13.6275 3.25986 13.5042C3.31584 13.4696 3.37464 13.4524 3.44271 13.4534C3.68317 13.4567 3.92367 13.4547 4.16413 13.4548Z" fill="#15A7E5"/>
<path d="M4.15726 18.8005C3.95878 18.8005 3.76017 18.7956 3.56194 18.8026C3.46363 18.806 3.3712 18.7857 3.28384 18.753C3.18425 18.7158 3.11785 18.6302 3.09688 18.5276C3.05814 18.3378 3.12712 18.2085 3.30295 18.1187C3.33839 18.1006 3.38171 18.0896 3.42146 18.0895C3.91761 18.0875 4.41376 18.0874 4.90992 18.0889C5.04682 18.0892 5.15764 18.1736 5.20684 18.3059C5.27266 18.4831 5.22523 18.6428 5.06936 18.7353C4.99523 18.7793 4.91078 18.8016 4.82136 18.8009C4.60001 18.7992 4.37861 18.8003 4.15726 18.8003V18.8005Z" fill="#15A7E5"/>
<path d="M15.7385 7.11018C15.4983 7.11013 15.258 7.1108 15.0179 7.10984C14.8719 7.10927 14.7513 7.02047 14.6978 6.90129C14.6216 6.73163 14.7029 6.58269 14.7889 6.49781C14.8633 6.42444 14.9571 6.41159 15.0513 6.41097C15.5011 6.40786 15.951 6.40719 16.4009 6.41049C16.4982 6.41121 16.5959 6.4168 16.6832 6.48123C16.8556 6.60829 16.8631 6.91166 16.6801 7.04135C16.6172 7.08591 16.552 7.12265 16.4705 7.11023C16.4631 7.10913 16.4553 7.11023 16.4477 7.11023C16.2113 7.11027 15.9749 7.11023 15.7385 7.11018Z" fill="#15A7E5"/>
<path d="M15.747 7.95871C15.9915 7.95871 16.2359 7.95742 16.4804 7.95909C16.6689 7.96043 16.7989 8.1215 16.8119 8.30894C16.8128 8.50516 16.6779 8.65238 16.5127 8.65926C16.4671 8.66112 16.42 8.65926 16.3745 8.65926C15.9352 8.65912 15.4961 8.65826 15.0569 8.65606C14.9309 8.65544 14.8188 8.62224 14.7382 8.51381C14.6487 8.39353 14.64 8.26289 14.709 8.13884C14.769 8.03093 14.8635 7.95599 15.0022 7.9578C15.2505 7.96105 15.4988 7.95871 15.747 7.95871Z" fill="#15A7E5"/>
<path d="M4.17042 16.5543C4.42244 16.5543 4.6746 16.5501 4.92652 16.5555C5.15026 16.5604 5.29447 16.796 5.21365 17.0082C5.15833 17.1535 5.06185 17.2371 4.90207 17.2372C4.41327 17.2375 3.92447 17.2362 3.43562 17.2386C3.27498 17.2394 3.17314 17.1541 3.10436 17.0229C3.04341 16.9067 3.11764 16.6786 3.233 16.6062C3.28449 16.5738 3.33813 16.5521 3.40285 16.5529C3.65869 16.5558 3.91458 16.5541 4.17042 16.5541V16.5543Z" fill="#15A7E5"/>
<path d="M19.9183 14.9733C19.9374 14.9833 19.944 14.9897 19.9507 14.9898C20.1604 14.9918 20.3702 14.9954 20.5799 14.9933C20.6516 14.9925 20.6657 14.9714 20.6663 14.8879C20.6678 14.6857 20.6678 14.4833 20.6664 14.2811C20.6657 14.1774 20.6515 14.1636 20.5451 14.1625C20.362 14.1605 20.1787 14.1606 19.9956 14.1615C19.9708 14.1617 19.946 14.1719 19.9183 14.1781V14.9733ZM21.3478 14.583C21.3478 14.8464 21.3495 15.1098 21.3472 15.3732C21.3457 15.5476 21.1872 15.7061 21.0142 15.7066C20.5256 15.7078 20.0369 15.7075 19.5483 15.7067C19.4089 15.7064 19.291 15.615 19.234 15.489C19.1977 15.4089 19.1908 15.3296 19.1909 15.2452C19.1919 14.7833 19.1911 14.3215 19.1916 13.8596C19.1918 13.7287 19.2298 13.6123 19.3383 13.5305C19.3984 13.4852 19.4631 13.4531 19.5447 13.4536C20.0371 13.4562 20.5296 13.454 21.022 13.4554C21.1925 13.4558 21.3458 13.6093 21.3472 13.7814C21.3495 14.0486 21.3478 14.3158 21.3478 14.583Z" fill="#15A7E5"/>
<path d="M20.2869 18.088C20.5199 18.088 20.7529 18.0875 20.9859 18.0881C21.2073 18.0886 21.3461 18.2347 21.3484 18.4583C21.3496 18.5855 21.2907 18.6795 21.1904 18.7384C21.1247 18.777 21.0394 18.7983 20.9626 18.7992C20.5082 18.8046 20.0536 18.8037 19.5991 18.8008C19.3919 18.7995 19.2522 18.6876 19.1989 18.4936C19.1683 18.382 19.2582 18.199 19.3706 18.1364C19.4355 18.1003 19.5019 18.0858 19.5765 18.0868C19.8133 18.0901 20.0501 18.088 20.2869 18.088Z" fill="#15A7E5"/>
<path d="M20.2835 16.5545C20.5391 16.5545 20.7947 16.5513 21.0502 16.5557C21.2189 16.5587 21.339 16.6915 21.348 16.8601C21.3562 17.014 21.3081 17.1328 21.1646 17.2024C21.1384 17.2151 21.1104 17.2281 21.0821 17.2313C21.0254 17.2378 20.968 17.2397 20.9109 17.2398C20.4912 17.2404 20.0716 17.2402 19.652 17.24C19.6101 17.24 19.5679 17.2345 19.5263 17.2374C19.3474 17.2502 19.2098 17.0586 19.1941 16.9095C19.1769 16.7449 19.3397 16.5584 19.5054 16.5555C19.7648 16.551 20.0242 16.5543 20.2835 16.5543V16.5545Z" fill="#15A7E5"/>
</g>
<defs>
<clipPath id="clip0_489_13">
<rect width="24.3421" height="25" fill="white"/>
</clipPath>
</defs>
</svg>
