<svg width="35" height="35" viewBox="0 0 35 35" fill="none" xmlns="http://www.w3.org/2000/svg">
<g clip-path="url(#clip0_489_13)">
<path d="M22.775 1.1327V1.31854V4.22346C22.775 4.25556 22.7737 4.28779 22.7759 4.31976C22.7832 4.43036 22.7991 4.44976 22.915 4.45083C23.2214 4.45357 23.5278 4.45317 23.8342 4.45089C23.8824 4.45056 23.9301 4.43057 23.9585 4.39258C23.9981 4.33948 23.9901 4.27957 23.9901 4.22098C23.9903 3.24737 23.9904 2.27369 23.9898 1.30001C23.9898 1.24799 23.983 1.19589 23.9785 1.1327H22.775ZM1.00769 30.0553C1.07369 30.0593 1.12692 30.065 1.18028 30.0653C1.4217 30.0663 1.66311 30.0658 1.90459 30.0658C2.07087 30.0658 2.20576 29.9348 2.20576 29.7728C2.20583 26.2425 2.20583 22.7123 2.20583 19.1819C2.20583 19.1284 2.20748 19.0748 2.20459 19.0214C2.19765 18.8927 2.16565 18.8608 2.03639 18.8571C1.94683 18.8547 1.85707 18.8564 1.76737 18.8565C1.59409 18.8568 1.42046 18.8552 1.24718 18.8567C1.01517 18.8587 1.0015 18.8433 0.996834 19.0074C0.996491 19.0181 0.996629 19.0288 0.996629 19.0395C0.996697 22.6554 0.996766 26.2713 0.997247 29.8872C0.997316 29.939 1.00357 29.9909 1.00769 30.0553ZM34.0761 30.0527C34.0843 30.0276 34.0917 30.0129 34.0937 29.9975C34.097 29.9711 34.0979 29.9442 34.0979 29.9176C34.0978 26.2603 34.0974 22.6029 34.0966 18.9457C34.0966 18.9302 34.0895 18.9147 34.0851 18.8994C34.0837 18.8944 34.0811 18.8892 34.0777 18.8852C34.0745 18.8811 34.0695 18.8784 34.0503 18.8634C34.012 18.8616 33.9582 18.857 33.9044 18.8569C33.6682 18.8561 33.432 18.8597 33.1959 18.8557C32.916 18.851 32.884 18.8486 32.8842 19.1581C32.8863 22.7032 32.8856 26.2482 32.8856 29.7932C32.8856 29.8253 32.884 29.8575 32.8858 29.8895C32.8936 30.0304 32.9296 30.0647 33.0783 30.0654C33.3693 30.0666 33.6603 30.0662 33.9514 30.0651C33.994 30.0649 34.0364 30.0568 34.0761 30.0527ZM21.7285 1.12581C21.6783 1.12253 21.6351 1.11725 21.5919 1.11725C20.3673 1.11685 19.1426 1.11738 17.918 1.11665C17.6731 1.11645 17.4407 1.18619 17.2224 1.2752C16.8594 1.42326 16.5479 1.66053 16.302 1.97711C15.9941 2.3738 15.8398 2.86412 15.8374 3.36139C15.8318 4.47216 15.8356 5.58293 15.836 6.6937C15.836 6.74546 15.8417 6.79722 15.845 6.85567H19.2594C19.2594 6.78793 19.2592 6.73055 19.2594 6.67304C19.2604 6.09558 19.2605 5.51813 19.2642 4.94068C19.2645 4.88062 19.2768 4.82064 19.3027 4.76621C19.4019 4.5589 19.5611 4.44782 19.8108 4.4511C20.3873 4.45872 20.964 4.45344 21.5406 4.45344H21.7134C21.7607 4.30779 21.7729 1.33927 21.7285 1.12581M26.4257 31.1997H26.6418C28.3065 31.1996 29.9713 31.2002 31.6362 31.1988C31.8604 31.1986 31.8996 31.2573 31.8996 30.9452C31.8985 26.6226 31.8989 22.3 31.8988 17.9773C31.8988 17.9346 31.8973 17.8918 31.8977 17.849C31.8984 17.7704 31.8525 17.7313 31.7788 17.7204C31.7357 17.7141 31.6911 17.7149 31.6473 17.7149C29.9935 17.7147 28.3397 17.7155 26.6859 17.7141C26.3781 17.7139 26.399 17.7194 26.399 17.9974C26.399 22.3039 26.399 26.6105 26.3991 30.9171C26.3991 30.9706 26.397 31.0243 26.4009 31.0776C26.4035 31.1133 26.4149 31.1485 26.4257 31.1997M24.6312 0.0987607C24.7159 0.106451 24.7355 0.1215 24.7659 0.141161C24.8322 0.194593 24.8498 0.215055 24.8965 0.287145C24.948 0.362712 24.9638 0.435538 24.973 0.522808C24.9744 0.623988 24.982 0.731321 24.982 0.827552C24.9826 2.11674 24.9826 3.406 24.982 4.69519C24.982 4.79683 24.979 4.89855 24.9736 4.99999C24.9622 5.21526 24.8089 5.37917 24.5918 5.40284C24.4613 5.41709 24.3296 5.42845 24.1984 5.42865C22.9787 5.43059 21.759 5.42972 20.5393 5.42993C20.2873 5.42999 20.2871 5.43053 20.287 5.67823C20.2869 6.00992 20.2866 6.34154 20.2877 6.67324C20.2879 6.73028 20.2932 6.78452 20.2921 6.86296C20.3703 6.86296 20.4425 6.86276 20.5068 6.86276C22.2484 6.86276 23.99 6.86296 25.7317 6.86229C25.8583 6.86222 25.9817 6.8651 26.0971 6.92856C26.2243 6.99865 26.3164 7.08538 26.3543 7.23351C26.3922 7.38163 26.3966 7.52855 26.3966 7.67795C26.3965 9.02599 26.3982 10.3741 26.3944 11.7222C26.394 11.8651 26.3725 12.0101 26.3417 12.1501C26.3155 12.269 26.2277 12.3669 26.1246 12.4148C25.9141 12.5125 25.6536 12.4712 25.492 12.2894C25.4036 12.1899 25.3778 12.0794 25.3779 11.9518C25.3799 10.6679 25.379 9.38409 25.3789 8.10019V7.8991C25.2362 7.86372 9.92516 7.85804 9.72969 7.89281V8.10855C9.72976 14.0252 9.72983 19.9418 9.72962 25.8584C9.72955 25.9796 9.73628 26.0987 9.66128 26.2113C9.56053 26.363 9.3244 26.4816 9.16493 26.4566C8.95366 26.4235 8.7786 26.2698 8.74261 26.0689C8.72379 25.9644 8.71493 25.8567 8.71486 25.7505C8.71349 23.172 8.71321 20.5935 8.71479 18.0151C8.715 17.6841 8.69494 17.7123 8.40902 17.7123C6.76082 17.7125 5.11254 17.7123 3.46434 17.7123C3.42594 17.7123 3.38721 17.711 3.34909 17.7147C3.2324 17.7261 3.20802 17.7515 3.20342 17.8638C3.2017 17.9066 3.20294 17.9494 3.20294 17.9922V30.9274V31.1816C3.34868 31.1987 3.4175 31.2354 3.59723 31.0944C4.96158 30.0232 7.11116 30.0675 8.46946 31.1458C8.55641 31.2148 8.5981 31.1994 8.66644 31.1935C8.73093 31.1272 8.71307 31.0436 8.71321 30.9663C8.71431 30.1478 8.71252 29.3293 8.7152 28.5109C8.71555 28.394 8.72502 28.2753 8.74796 28.1608C8.80243 27.8892 9.12688 27.7424 9.39343 27.8412C9.53814 27.8948 9.63436 27.9812 9.69123 28.1102C9.71987 28.1751 9.7279 28.2528 9.72811 28.3248C9.73051 29.1967 9.72969 30.0687 9.72983 30.9407C9.72983 30.9889 9.72845 31.037 9.731 31.0851C9.73271 31.116 9.7404 31.1466 9.74755 31.1901C9.81135 31.1935 9.87007 31.1994 9.9288 31.1994C15.0108 31.1998 20.0929 31.1998 25.1749 31.1997C25.2079 31.1997 25.2409 31.1986 25.2738 31.1986C25.3414 31.1985 25.3747 31.1639 25.3773 31.1002C25.3792 31.0521 25.3788 31.0039 25.3788 30.9558V14.6022C25.3788 14.4899 25.3779 14.3775 25.3806 14.2653C25.3881 13.9512 25.7571 13.7281 26.0544 13.8451C26.3392 13.9572 26.3917 14.191 26.3946 14.4406C26.4025 15.136 26.3965 15.8315 26.3974 16.5269C26.3975 16.5946 26.4078 16.6623 26.4152 16.7517H26.6207C28.4997 16.7516 30.3787 16.7516 32.2577 16.7516C32.3235 16.7516 32.3895 16.7516 32.4554 16.754C32.6819 16.7621 32.8584 16.9171 32.8775 17.1353C32.8924 17.3055 32.8932 17.4768 32.903 17.6475C32.9072 17.7207 32.9183 17.7935 32.9278 17.88C33.0013 17.8835 33.0601 17.8884 33.1188 17.8885C33.5803 17.8892 34.0423 17.9014 34.5032 17.8845C34.8099 17.8869 35.1147 18.0678 35.1147 18.3413V30.5037C35.1147 30.7828 34.9024 31.034 34.6186 31.0235C34.1695 31.0131 33.5426 31.0178 33.0929 31.0185C32.9121 31.0188 32.8864 31.0438 32.8858 31.2246C32.8847 31.6198 32.8855 32.015 32.8854 32.4101C32.8853 32.8427 32.8805 33.2754 32.8866 33.7079C32.8904 33.9742 32.8147 34.1491 32.5592 34.3055C32.5437 34.3201 32.4827 34.3487 32.4215 34.3487H29.3784C29.3181 34.3362 29.2844 34.3166 29.2268 34.2831C29.1093 34.1989 29.0995 34.1822 29.0463 34.0329C28.9728 33.8184 29.0881 33.5124 29.2697 33.4278C29.3765 33.3781 29.4888 33.3442 29.6156 33.3452C30.3078 33.3511 31.0001 33.3482 31.6924 33.3476C31.7557 33.3475 31.8191 33.3422 31.8971 33.3385C31.8971 32.9721 31.8974 32.6253 31.8968 32.2785C31.8967 32.2119 31.8507 32.183 31.7913 32.1771C31.7204 32.1701 31.6488 32.1691 31.5775 32.1691C22.2211 32.1688 12.8646 32.1689 3.50822 32.1689C3.45328 32.1689 3.39772 32.1655 3.34366 32.1725C3.29765 32.1784 3.25232 32.162 3.21097 32.1739L3.21207 33.348H3.46331C11.2649 33.348 19.0665 33.348 26.8681 33.348C26.9506 33.348 27.0332 33.3454 27.1153 33.3497C27.2567 33.3573 27.4809 33.4685 27.558 33.5776C27.6922 33.7677 27.6999 34.0016 27.533 34.2042C27.4551 34.3055 27.3525 34.3436 27.2214 34.3467C27.1613 34.3481 27.1152 34.3487 27.1108 34.3487H2.73769C2.68055 34.3487 2.54428 34.2974 2.5208 34.2839C2.42602 34.2298 2.34903 34.1648 2.29037 34.0691C2.21221 33.9419 2.20796 33.8056 2.20747 33.6686C2.20438 32.8615 2.20548 32.0546 2.20452 31.2477C2.20425 31.0303 2.19161 31.0185 1.97526 31.0183C1.4868 31.0179 0.998277 31.014 0.509886 31.0192C0.28317 31.0216 0.127197 30.9313 0.0286394 30.7342C0.0172384 30.7113 0.0299435 26.5875 0.00247116 26.3451L0 26.3164C0.000961534 24.7448 0.0158646 21.5411 0.0203289 18.8558C0.0195047 18.2083 0.0195036 18.2083 0.0281574 18.1843C0.0733494 18.059 0.16964 17.9796 0.285162 17.9358C0.378225 17.9005 0.486536 17.8923 0.588184 17.8913C1.06325 17.887 1.53832 17.89 2.01338 17.8889C2.11462 17.8886 2.20129 17.8118 2.20445 17.7133C2.20569 17.6759 2.20335 17.6384 2.205 17.601C2.21221 17.4357 2.21585 17.2702 2.22945 17.1054C2.23982 16.9797 2.32506 16.8977 2.42458 16.826C2.53453 16.7466 2.66042 16.7527 2.78577 16.7527C4.68047 16.7526 6.57524 16.7527 8.47001 16.7528C8.53553 16.7528 8.66671 16.745 8.72722 16.745C8.72413 16.602 8.72468 16.5303 8.72475 16.4217C8.72578 13.4486 8.72434 10.4754 8.72468 7.5022C8.72468 7.41727 8.73759 7.33201 8.74858 7.24741C8.76129 7.14978 8.81424 7.07375 8.888 7.01222C9.00895 6.91144 9.16767 6.86416 9.32695 6.86436C11.0811 6.86711 12.8352 6.8661 14.5892 6.86577C14.6586 6.8657 14.7279 6.86156 14.8149 6.85881V6.66689C14.815 5.70966 14.8167 4.75243 14.8146 3.79527C14.8137 3.37356 14.8351 2.9556 14.9284 2.54112C14.9683 2.36411 15.0362 2.19993 15.1058 2.03596C15.208 1.79548 15.3545 1.57941 15.5124 1.36842C15.7236 1.08615 15.9846 0.854568 16.2771 0.663978C16.6487 0.421896 16.9197 0.237258 17.363 0.138887C17.3564 0.140091 17.565 0.0987607 17.6423 0.0987607H24.6312Z" fill="#15A7E5"/>
<path d="M23.1417 15.5131H21.1032C21.0565 15.7379 21.0719 16.5696 21.1242 16.681C21.1492 16.683 21.1763 16.687 21.2033 16.687C21.802 16.6874 22.4006 16.6872 22.9992 16.6872C23.0157 16.6871 23.0323 16.6854 23.0487 16.6866C23.1093 16.6913 23.1397 16.656 23.1549 16.6063C23.1643 16.576 23.1698 16.5435 23.1699 16.512C23.1709 16.2286 23.1715 15.9451 23.1689 15.6617C23.1685 15.6151 23.1523 15.5685 23.1417 15.5131ZM22.1106 17.6383C21.7044 17.6383 21.2982 17.6391 20.892 17.6381C20.5805 17.6373 20.3561 17.4823 20.1916 17.2409C20.0887 17.0899 20.0383 16.9176 20.039 16.7329C20.0404 16.2998 20.0344 15.8667 20.041 15.4338C20.0469 15.0375 20.2457 14.7493 20.6119 14.5872C20.7422 14.5294 20.8988 14.5065 21.0439 14.5048C21.7576 14.4969 22.4715 14.4948 23.1852 14.5042C23.5464 14.5088 23.8584 14.6312 24.049 14.9566C24.1162 15.0714 24.1714 15.1885 24.1704 15.328C24.1663 15.8358 24.1786 16.344 24.1648 16.8515C24.1558 17.1857 23.9562 17.4136 23.6611 17.5691C23.4884 17.6601 23.2994 17.6434 23.1154 17.6471C22.7806 17.6538 22.4455 17.649 22.1106 17.649V17.6383Z" fill="#15A7E5"/>
<path d="M14.0554 15.5125H11.9721C11.9686 15.5828 11.974 15.6201 11.9736 15.671C11.971 15.949 11.9726 16.2269 11.9722 16.5049C11.9721 16.6307 12.0096 16.6917 12.171 16.6898C12.7528 16.6833 13.3349 16.6878 13.9168 16.6872C13.9593 16.6871 14.0016 16.6949 14.0554 16.6899V15.5125ZM13.0237 17.6368C12.6011 17.6368 12.1783 17.6332 11.7557 17.6381C11.4768 17.6415 11.1422 17.3651 11.0338 17.1182C10.9797 16.9948 10.9706 16.8727 10.9705 16.7457C10.9702 16.2698 10.9719 15.7939 10.9719 15.3181C10.9719 14.9663 11.3484 14.5941 11.6591 14.5447C11.8447 14.5152 12.0282 14.5005 12.215 14.5008C12.8191 14.5019 13.4232 14.5002 14.0272 14.5015C14.22 14.5019 14.4098 14.5276 14.5842 14.6128C14.8103 14.7235 14.9575 14.8944 15.0425 15.1331C15.0949 15.2806 15.1008 15.4237 15.1013 15.5721C15.1024 15.9624 15.1094 16.3529 15.0993 16.7429C15.0885 17.1634 14.8681 17.4802 14.4533 17.6156C14.3127 17.6616 14.149 17.6462 13.9958 17.6483C13.6877 17.6505 13.7642 17.6502 13.4276 17.6413C13.4276 17.6371 13.0238 17.6411 13.0237 17.6368" fill="#15A7E5"/>
<path d="M5.98345 21.9898C5.64334 21.9897 5.30303 21.9831 4.96319 21.9919C4.69081 21.999 4.35736 21.7356 4.45125 21.3469C4.495 21.1661 4.70736 21.0163 4.94616 20.989C4.98414 20.9846 5.02281 20.9849 5.06113 20.9848C5.67006 20.9844 6.27898 20.9842 6.88784 20.9838C7.0491 20.9838 7.20611 21.0014 7.33674 21.1048C7.63956 21.3444 7.5842 21.7593 7.25254 21.93C7.16002 21.9775 7.0704 21.9911 6.97088 21.9906C6.64169 21.9886 6.31257 21.9898 5.98345 21.9898Z" fill="#15A7E5"/>
<path d="M5.98755 18.8367C6.33329 18.8368 6.6791 18.8376 7.02484 18.8365C7.31474 18.8355 7.50911 19.0483 7.53926 19.3082C7.56247 19.5086 7.39359 19.734 7.18658 19.784C7.07683 19.8106 6.9622 19.831 6.84964 19.8318C6.2405 19.8364 5.63123 19.8369 5.0221 19.832C4.85851 19.8306 4.70459 19.7933 4.57987 19.6682C4.35617 19.4437 4.40068 19.0784 4.68735 18.9059C4.76785 18.8575 4.85239 18.8334 4.95026 18.8347C5.296 18.8394 5.64181 18.8366 5.98755 18.8367Z" fill="#15A7E5"/>
<path d="M5.97767 26.3207C5.6923 26.3207 5.40672 26.3139 5.1217 26.3236C4.98035 26.3284 4.84745 26.2999 4.72184 26.2542C4.57864 26.2021 4.48317 26.0822 4.45302 25.9387C4.39732 25.6729 4.49649 25.4919 4.74931 25.3662C4.80027 25.3409 4.86256 25.3254 4.91971 25.3252C5.6331 25.3225 6.34649 25.3223 7.05987 25.3244C7.25671 25.3249 7.41605 25.4431 7.4868 25.6283C7.58144 25.8763 7.51324 26.0999 7.28913 26.2294C7.18254 26.291 7.06111 26.3222 6.93254 26.3212C6.61427 26.3188 6.29594 26.3204 5.97767 26.3204V26.3207Z" fill="#15A7E5"/>
<path d="M22.6293 9.95424C22.2839 9.95417 21.9385 9.95511 21.5932 9.95377C21.3833 9.95297 21.2098 9.82865 21.1329 9.6618C21.0234 9.42426 21.1403 9.21575 21.264 9.09692C21.3709 8.9942 21.5058 8.97621 21.6412 8.97534C22.288 8.97099 22.9349 8.97006 23.5817 8.97467C23.7216 8.97568 23.8621 8.9835 23.9877 9.07371C24.2355 9.2516 24.2462 9.67631 23.9831 9.85787C23.8927 9.92026 23.7991 9.97169 23.6818 9.9543C23.6712 9.95277 23.66 9.9543 23.649 9.9543C23.3091 9.95437 22.9692 9.9543 22.6293 9.95424Z" fill="#15A7E5"/>
<path d="M22.6419 11.1422C22.9934 11.1422 23.3449 11.1404 23.6964 11.1427C23.9675 11.1446 24.1544 11.3701 24.173 11.6325C24.1743 11.9072 23.9804 12.1133 23.7428 12.123C23.6772 12.1256 23.6096 12.123 23.5441 12.123C22.9125 12.1228 22.2811 12.1216 21.6496 12.1185C21.4684 12.1176 21.3073 12.0711 21.1914 11.9193C21.0628 11.7509 21.0502 11.568 21.1494 11.3944C21.2356 11.2433 21.3715 11.1384 21.571 11.1409C21.9279 11.1455 22.2849 11.1422 22.6419 11.1422Z" fill="#15A7E5"/>
<path d="M5.99635 23.1761C6.35871 23.1761 6.72128 23.1702 7.0835 23.1777C7.40521 23.1846 7.61255 23.5144 7.49635 23.8114C7.41681 24.0149 7.27808 24.132 7.04834 24.1321C6.34553 24.1325 5.64272 24.1306 4.93983 24.134C4.70886 24.1351 4.56243 24.0157 4.46353 23.8321C4.37589 23.6694 4.48262 23.35 4.64849 23.2486C4.72253 23.2034 4.79966 23.173 4.89272 23.1741C5.26057 23.1781 5.6285 23.1757 5.99635 23.1757V23.1761Z" fill="#15A7E5"/>
<path d="M28.6391 20.9626C28.6665 20.9766 28.6761 20.9856 28.6857 20.9857C28.9872 20.9885 29.2889 20.9936 29.5904 20.9906C29.6935 20.9895 29.7137 20.96 29.7146 20.8431C29.7168 20.5599 29.7168 20.2767 29.7148 19.9935C29.7137 19.8484 29.6934 19.8291 29.5404 19.8275C29.277 19.8247 29.0136 19.8248 28.7502 19.8261C28.7146 19.8263 28.6789 19.8407 28.6391 19.8493V20.9626ZM30.6946 20.4162C30.6946 20.785 30.6969 21.1537 30.6937 21.5225C30.6915 21.7667 30.4636 21.9885 30.2148 21.9892C29.5123 21.991 28.8097 21.9905 28.1071 21.9894C27.9067 21.989 27.7372 21.861 27.6552 21.6846C27.603 21.5725 27.5931 21.4614 27.5933 21.3433C27.5947 20.6966 27.5935 20.05 27.5943 19.4034C27.5946 19.2201 27.6491 19.0572 27.8051 18.9427C27.8915 18.8793 27.9847 18.8343 28.102 18.835C28.8099 18.8386 29.518 18.8355 30.2261 18.8375C30.4712 18.8381 30.6916 19.0531 30.6937 19.294C30.697 19.6681 30.6946 20.0421 30.6946 20.4162" fill="#15A7E5"/>
<path d="M29.1693 25.3232C29.5042 25.3231 29.8392 25.3225 30.1743 25.3233C30.4927 25.3241 30.6921 25.5285 30.6954 25.8416C30.6972 26.0196 30.6125 26.1513 30.4683 26.2337C30.3739 26.2878 30.2513 26.3176 30.1408 26.3189C29.4874 26.3264 28.8338 26.3252 28.1803 26.3211C27.8824 26.3193 27.6816 26.1627 27.6049 25.891C27.5608 25.7348 27.6901 25.4786 27.8517 25.391C27.945 25.3404 28.0405 25.3201 28.1478 25.3215C28.4882 25.3262 28.8287 25.3232 29.1693 25.3232Z" fill="#15A7E5"/>
<path d="M29.1644 23.1764C29.5319 23.1764 29.8994 23.1717 30.2667 23.178C30.5093 23.1821 30.6819 23.3681 30.6949 23.6041C30.7068 23.8196 30.6375 23.9859 30.4312 24.0834C30.3935 24.1011 30.3533 24.1193 30.3126 24.1238C30.2311 24.1328 30.1485 24.1355 30.0664 24.1357C29.463 24.1365 28.8597 24.1363 28.2564 24.1359C28.1961 24.1359 28.1354 24.1282 28.0755 24.1324C27.8184 24.1502 27.6205 23.882 27.598 23.6733C27.5732 23.4429 27.8073 23.1817 28.0456 23.1777C28.4185 23.1714 28.7915 23.176 29.1644 23.176V23.1764Z" fill="#15A7E5"/>
</g>
<defs>
<clipPath id="clip0_489_13">
<rect width="35" height="35" fill="white"/>
</clipPath>
</defs>
</svg>
