<svg width="36" height="39" viewBox="0 0 36 39" fill="none" xmlns="http://www.w3.org/2000/svg">
<g clip-path="url(#clip0_448_261)">
<path d="M30.7829 7.42462C27.3967 4.20712 22.8872 2.4375 18.0948 2.4375C8.20286 2.4375 0.153551 10.0676 0.153551 19.4443C0.153551 22.4396 0.977878 25.366 2.54571 27.9477L0 36.7575L9.51208 34.3903C12.1305 35.7463 15.0803 36.4587 18.0867 36.4587H18.0948C27.9786 36.4587 36.2057 28.8287 36.2057 19.4519C36.2057 14.9091 34.1691 10.6421 30.7829 7.42462ZM18.0948 33.5936C15.4117 33.5936 12.7851 32.9118 10.498 31.6248L9.95657 31.3184L4.31559 32.7203L5.81878 27.5034L5.46318 26.9671C3.96808 24.7149 3.18416 22.1179 3.18416 19.4443C3.18416 11.6533 9.87576 5.31027 18.1029 5.31027C22.0871 5.31027 25.8289 6.78113 28.6413 9.45471C31.4537 12.1283 33.1832 15.6752 33.1751 19.4519C33.1751 27.2506 26.3138 33.5936 18.0948 33.5936ZM26.2734 23.0065C25.8289 22.792 23.6226 21.7655 23.2105 21.6276C22.7983 21.482 22.4993 21.4131 22.2002 21.8421C21.9012 22.2711 21.0446 23.221 20.7779 23.5121C20.5193 23.7956 20.2526 23.8339 19.8081 23.6194C17.1735 22.3707 15.444 21.3901 13.7064 18.5633C13.2458 17.8126 14.1671 17.8662 15.0238 16.2421C15.1692 15.9587 15.0965 15.7135 14.9833 15.499C14.8702 15.2845 13.9731 13.1931 13.6014 12.3428C13.2377 11.5154 12.866 11.6304 12.5912 11.615C12.3326 11.5997 12.0336 11.5997 11.7345 11.5997C11.4355 11.5997 10.9506 11.707 10.5384 12.1283C10.1263 12.5573 8.97061 13.5838 8.97061 15.6752C8.97061 17.7666 10.5789 19.789 10.7971 20.0725C11.0233 20.3559 13.957 24.6459 18.4584 26.4921C21.3032 27.6566 22.4184 27.7562 23.8408 27.557C24.7056 27.4344 26.4916 26.5304 26.8633 25.5346C27.2351 24.5387 27.2351 23.6883 27.122 23.5121C27.0169 23.3206 26.7179 23.2134 26.2734 23.0065Z" fill="white"/>
</g>
<defs>
<clipPath id="clip0_448_261">
<rect width="36" height="39" fill="white"/>
</clipPath>
</defs>
</svg>
