<svg width="23" height="25" viewBox="0 0 23 25" fill="none" xmlns="http://www.w3.org/2000/svg">
<path d="M4.53752 1.47059C4.84035 0.613824 5.65743 0 6.61789 0H11.0297C11.9901 0 12.8072 0.613824 13.11 1.47059H15.4414C16.6597 1.47059 17.6473 2.45819 17.6473 3.67647V10.5986C17.1733 10.4645 16.6817 10.3726 16.1767 10.3271V3.67647C16.1767 3.27038 15.8474 2.94118 15.4414 2.94118H13.11C12.8072 3.79794 11.9901 4.41176 11.0297 4.41176H6.61789C5.65743 4.41176 4.84035 3.79794 4.53752 2.94118H2.20613C1.80004 2.94118 1.47083 3.27038 1.47083 3.67647V21.3235C1.47083 21.7296 1.80004 22.0588 2.20613 22.0588H8.23511C8.50408 22.585 8.82892 23.0778 9.20201 23.5294H2.20613C0.987847 23.5294 0.000244141 22.5418 0.000244141 21.3235V3.67647C0.000244141 2.45819 0.987847 1.47059 2.20613 1.47059H4.53752ZM6.61789 1.47059C6.2118 1.47059 5.8826 1.79979 5.8826 2.20588C5.8826 2.61197 6.2118 2.94118 6.61789 2.94118H11.0297C11.4357 2.94118 11.7649 2.61197 11.7649 2.20588C11.7649 1.79979 11.4357 1.47059 11.0297 1.47059H6.61789ZM22.0591 18.3824C22.0591 22.0372 19.0963 25 15.4414 25C11.7866 25 8.82377 22.0372 8.82377 18.3824C8.82377 14.7275 11.7866 11.7647 15.4414 11.7647C19.0963 11.7647 22.0591 14.7275 22.0591 18.3824ZM18.9026 15.6565C18.6154 15.3694 18.1498 15.3694 17.8626 15.6565L13.9708 19.5484L13.0202 18.5976C12.733 18.3106 12.2675 18.3106 11.9802 18.5976C11.6932 18.8849 11.6932 19.3504 11.9802 19.6376L13.4508 21.1082C13.738 21.3953 14.2036 21.3953 14.4908 21.1082L18.9026 16.6965C19.1897 16.4093 19.1897 15.9437 18.9026 15.6565Z" fill="#15A7E5"/>
</svg>
