<svg width="29" height="30" viewBox="0 0 29 30" fill="none" xmlns="http://www.w3.org/2000/svg">
<path d="M5.07656 10.3613H7.5625V12.9145C7.5625 12.9812 7.62754 13.0332 7.70703 13.0332H9.44141C9.5209 13.0332 9.58594 12.9813 9.58594 12.9107V10.3613H12.0719C12.1369 10.3613 12.1875 10.2945 12.1875 10.2129V8.43164C12.1875 8.35 12.1369 8.2832 12.0683 8.2832H9.58594V5.73008C9.58594 5.66328 9.5209 5.61133 9.44141 5.61133H7.70703C7.62754 5.61133 7.5625 5.66328 7.5625 5.73008V8.2832H5.07656C5.01152 8.2832 4.96094 8.35 4.96094 8.43164V10.2129C4.96094 10.2945 5.01152 10.3613 5.07656 10.3613ZM16.9281 10.3613H23.9234C23.9885 10.3613 24.0391 10.2945 24.0391 10.2129V8.43164C24.0391 8.35 23.9885 8.2832 23.9198 8.2832H16.9281C16.8631 8.2832 16.8125 8.35 16.8125 8.43164V10.2129C16.8125 10.2945 16.8631 10.3613 16.9281 10.3613ZM16.9281 20.1953H23.9234C23.9885 20.1953 24.0391 20.1285 24.0391 20.0469V18.2656C24.0391 18.184 23.9885 18.1172 23.9198 18.1172H16.9281C16.8631 18.1172 16.8125 18.184 16.8125 18.2656V20.0469C16.8125 20.1285 16.8631 20.1953 16.9281 20.1953ZM16.9281 24.0547H23.9234C23.9885 24.0547 24.0391 23.9879 24.0391 23.9062V22.125C24.0391 22.0434 23.9885 21.9766 23.9198 21.9766H16.9281C16.8631 21.9766 16.8125 22.0434 16.8125 22.125V23.9062C16.8125 23.9879 16.8631 24.0547 16.9281 24.0547ZM9.85693 21.0488L12.0683 18.2693C12.2236 18.0764 12.0936 17.7832 11.8551 17.7832H10.0195C9.93643 17.7832 9.85693 17.8203 9.80635 17.8908L8.57783 19.4346L7.34932 17.8908C7.32347 17.8581 7.29103 17.8316 7.25422 17.813C7.21742 17.7944 7.17713 17.7842 7.13613 17.7832H5.29697C5.0585 17.7832 4.92842 18.0764 5.08379 18.2693L7.29512 21.0488L5.02959 23.8988C4.87061 24.0918 5.00068 24.385 5.23916 24.385H7.07471C7.15781 24.385 7.2373 24.3479 7.28789 24.2773L8.57061 22.6631L9.85332 24.2773C9.90752 24.3441 9.98701 24.385 10.0665 24.385H11.9021C12.1405 24.385 12.2706 24.0918 12.1152 23.8988L9.85693 21.0488V21.0488ZM27.7969 0.15625H1.20312C0.563574 0.15625 0.046875 0.686914 0.046875 1.34375V28.6562C0.046875 29.3131 0.563574 29.8438 1.20312 29.8438H27.7969C28.4364 29.8438 28.9531 29.3131 28.9531 28.6562V1.34375C28.9531 0.686914 28.4364 0.15625 27.7969 0.15625ZM26.4961 27.3203H2.50391V2.67969H26.4961V27.3203Z" fill="white"/>
</svg>
