<svg width="35" height="38" viewBox="0 0 35 38" fill="none" xmlns="http://www.w3.org/2000/svg">
<path d="M15.4151 0.0873795C12.6003 0.539116 10.8273 1.7302 9.90194 3.81632C9.35767 5.03079 9.19451 6.17509 9.19451 8.8533V10.7684L8.85248 11.0564C8.62688 11.2431 8.40933 11.5311 8.24578 11.8659C8.00486 12.364 7.98916 12.4419 7.98916 13.2127C7.98916 13.8588 8.02823 14.1468 8.17569 14.5752C8.58781 15.813 9.31861 17.0118 10.1429 17.806C10.5393 18.1875 10.617 18.3198 10.8583 18.9894C11.1536 19.8457 11.5037 20.5076 12.0327 21.2235C12.2349 21.4962 12.3827 21.7217 12.367 21.7374C12.3517 21.7531 11.8538 22.002 11.2551 22.3057C10.0264 22.9208 9.43543 23.1777 6.90063 24.1897C3.63466 25.4978 3.02834 25.8713 2.23512 27.0781C0.991086 28.9387 0.0580606 32.3409 0.00367242 35.2059C-0.0196915 36.4047 0.0580605 36.6696 0.540277 37.1287C1.04586 37.6115 -0.229585 37.58 17.4914 37.58C32.9572 37.58 33.665 37.5724 33.9603 37.432C34.3724 37.2452 34.8232 36.7314 34.94 36.3188C35.0645 35.8594 34.9868 34.2089 34.7845 33.0258C34.2092 29.6938 33.2295 27.3584 31.8686 26.0738C31.332 25.5599 30.6399 25.2328 27.662 24.034C26.4643 23.5512 24.8081 22.8353 23.9839 22.4303L22.4832 21.6987L22.9111 21.0993C23.3852 20.4144 23.7897 19.6356 24.054 18.8962C24.1861 18.5146 24.3573 18.25 24.7537 17.8221C25.8189 16.6544 26.6198 15.3387 26.8845 14.3033C26.9779 13.9451 27.0089 13.595 26.9856 13.0965C26.9465 12.2402 26.6979 11.6561 26.138 11.0955L25.7726 10.7297L25.7339 8.29304C25.7029 6.4558 25.6638 5.73179 25.5784 5.35023C24.8786 2.43081 23.2378 0.865837 20.1974 0.196285C19.2797 -0.00619125 16.4182 -0.0683136 15.4151 0.0873795ZM19.3031 2.66435C20.6172 2.85916 21.4882 3.25606 22.1021 3.92561C22.8253 4.71979 23.1052 5.56038 23.1673 7.15641L23.214 8.22286L22.9497 8.24626L22.6855 8.26965L22.6621 9.11061C22.6464 9.74105 22.6154 9.95158 22.5453 9.92014C22.4909 9.89675 22.1565 9.74872 21.7911 9.59303C20.197 8.90814 18.1364 8.64316 16.0991 8.86135C14.8474 8.99366 13.9374 9.25826 12.4057 9.92014C12.3356 9.9512 12.3046 9.74105 12.2893 9.11061L12.2659 8.26965L12.0016 8.24626L11.7373 8.22286L11.7841 7.23426C11.9162 4.32251 13.0362 3.03019 15.7732 2.63329C16.527 2.524 18.5018 2.53972 19.3031 2.66435ZM18.6807 11.4226C19.6995 11.5472 20.4069 11.7731 21.5965 12.3414C22.6464 12.8476 22.7084 12.8629 23.3071 12.871C23.6491 12.871 24.0459 12.9021 24.1857 12.9331C24.4113 12.9876 24.4347 13.0186 24.4347 13.299C24.4347 14.0153 23.7893 15.1051 22.6851 16.2418C21.9853 16.9658 21.9462 17.0202 21.7444 17.6511C21.1143 19.6597 19.9561 20.944 18.4087 21.3566C17.8254 21.52 16.8456 21.4966 16.247 21.3098C14.9639 20.9129 13.8133 19.6904 13.2767 18.1335C13.1599 17.8064 13.0124 17.3784 12.9423 17.1836C12.8569 16.9267 12.639 16.6463 12.1491 16.1716C11.4183 15.4476 10.9361 14.7159 10.6795 13.9371C10.4619 13.2909 10.4696 13.0106 10.6952 12.9251C10.7886 12.894 11.185 12.8629 11.5661 12.8629H12.2659L13.3544 12.3414C13.9531 12.0534 14.7073 11.7497 15.0263 11.6642C16.1225 11.3601 17.4676 11.2746 18.6807 11.4226ZM15.3216 23.6997L16.1535 23.9953H17.4366C18.7664 23.9876 18.9997 23.9485 20.1193 23.4891C20.3449 23.3956 20.4069 23.4189 21.3246 23.9485C21.8532 24.2522 22.312 24.5011 22.3511 24.5011C22.3821 24.5011 22.4131 25.4433 22.4131 26.603V28.7048H17.4757H12.5379V26.6183V24.5241L12.8332 24.3918C12.9887 24.3217 13.4165 24.0724 13.7819 23.8389C14.1473 23.613 14.4583 23.4186 14.4663 23.4186C14.482 23.4113 14.8708 23.544 15.3216 23.6997ZM9.97203 27.2184V28.6899L9.66868 28.7443C9.05433 28.8455 8.44801 29.4215 8.26914 30.0677C8.21476 30.2625 8.18373 31.2354 8.18373 32.6914V35.0115H5.38466H2.5852V34.809C2.5852 34.4508 2.81845 32.9871 3.02068 32.053C3.53392 29.7176 4.33481 28.1603 5.26784 27.6698C5.57884 27.5064 9.80121 25.7624 9.91764 25.7547C9.94867 25.747 9.97203 26.4089 9.97203 27.2184ZM27.1254 26.5957C29.808 27.6779 30.1114 27.8335 30.4611 28.293C31.0363 29.048 31.6974 30.7453 32.0395 32.3647C32.195 33.0887 32.4439 34.638 32.4439 34.8872C32.4439 34.9961 32.1716 35.0119 29.6058 35.0119H26.7676V32.5752C26.7676 30.302 26.7519 30.1229 26.6045 29.7958C26.5191 29.601 26.3712 29.3598 26.2778 29.2585C26.0755 29.0403 25.3991 28.7056 25.1578 28.7056H24.979V27.2265C24.979 26.4089 24.9947 25.7474 25.01 25.7474C25.0257 25.747 25.9821 26.1286 27.1254 26.5957ZM24.2014 33.1428V35.0115H17.4757H10.7496V33.1432V31.2749H17.4757H24.2018L24.2014 33.1428Z" fill="#15A7E5"/>
</svg>
