<svg width="31" height="31" viewBox="0 0 31 31" fill="none" xmlns="http://www.w3.org/2000/svg">
<g clip-path="url(#clip0_448_310)">
<path d="M23.7689 13.007C22.1703 13.007 20.6371 12.3712 19.5067 11.2394C18.3763 10.1076 17.7412 8.57258 17.7412 6.972C17.7412 5.37142 18.3763 3.83639 19.5067 2.70461C20.6371 1.57282 22.1703 0.936996 23.7689 0.936996C25.3676 0.936996 26.9008 1.57282 28.0312 2.70461C29.1616 3.83639 29.7967 5.37142 29.7967 6.972C29.7967 8.57258 29.1616 10.1076 28.0312 11.2394C26.9008 12.3712 25.3676 13.007 23.7689 13.007V13.007Z" stroke="#C9D3DB"/>
<path d="M0.832255 6.972C0.832255 10.305 3.53096 13.007 6.85997 13.007C10.189 13.007 12.8877 10.305 12.8877 6.972C12.8877 3.63896 10.189 0.936996 6.85997 0.936996C3.53096 0.936996 0.832255 3.63896 0.832255 6.972Z" stroke="#C9D3DB"/>
<path d="M0.832253 24.113C0.832253 27.446 3.53096 30.148 6.85997 30.148C10.189 30.148 12.8877 27.446 12.8877 24.113C12.8877 20.78 10.189 18.078 6.85997 18.078C3.53096 18.078 0.832253 20.78 0.832253 24.113Z" stroke="#C9D3DB"/>
<path d="M17.7409 24.113C17.7409 27.446 20.4396 30.148 23.7687 30.148C27.0977 30.148 29.7964 27.446 29.7964 24.113C29.7964 20.78 27.0977 18.078 23.7687 18.078C20.4396 18.078 17.7409 20.78 17.7409 24.113Z" stroke="#C9D3DB"/>
</g>
<defs>
<clipPath id="clip0_448_310">
<rect width="29.9638" height="31" fill="white" transform="translate(0.333008)"/>
</clipPath>
</defs>
</svg>
