<svg width="37" height="35" viewBox="0 0 37 35" fill="none" xmlns="http://www.w3.org/2000/svg">
<path d="M28.594 22.3621C28.8721 22.3621 29.0975 22.5878 29.0975 22.8663V24.8388C29.7123 25.0491 30.1558 25.6328 30.1558 26.3186C30.1558 27.1808 29.4551 27.8822 28.594 27.8822C28.3468 27.8822 28.113 27.8241 27.905 27.7214L26.23 29.3984C26.1317 29.4968 26.0028 29.546 25.8739 29.546C25.7451 29.546 25.6162 29.4968 25.5178 29.3984C25.3212 29.2015 25.3212 28.8823 25.5178 28.6855L27.1928 27.0084C27.0902 26.8002 27.0322 26.5661 27.0322 26.3187C27.0322 25.6329 27.4757 25.0492 28.0904 24.8389V22.8663C28.0905 22.5878 28.3159 22.3621 28.594 22.3621V22.3621ZM28.0393 26.3186C28.0393 26.6248 28.2881 26.874 28.594 26.874C28.8999 26.874 29.1487 26.6248 29.1487 26.3186C29.1487 26.0124 28.8999 25.7632 28.594 25.7632C28.2881 25.7632 28.0393 26.0124 28.0393 26.3186Z" fill="#15A7E5"/>
<path d="M13.2077 10.3712C12.9491 10.2681 12.6565 10.3946 12.5537 10.6533L10.8287 14.9956C10.726 15.2543 10.8522 15.5474 11.1105 15.6503C11.1716 15.6746 11.2345 15.6861 11.2965 15.6861C11.4967 15.6861 11.686 15.5657 11.7645 15.3682L13.4895 11.0259C13.5922 10.7672 13.4661 10.474 13.2077 10.3712Z" fill="#15A7E5"/>
<path d="M15.1709 15.6434C15.2368 15.6725 15.3055 15.6862 15.3732 15.6862C15.5668 15.6862 15.7515 15.5736 15.8344 15.3848L17.741 11.0425C17.8095 10.8866 17.7946 10.7066 17.7016 10.5641C17.6087 10.4215 17.4501 10.3355 17.28 10.3355H14.8941C14.6161 10.3355 14.3906 10.5612 14.3906 10.8397C14.3906 11.1181 14.6161 11.3438 14.8941 11.3438H16.5087L14.9126 14.9791C14.8006 15.2339 14.9163 15.5314 15.1709 15.6434V15.6434Z" fill="#15A7E5"/>
<path d="M8.83586 15.5666C9.11393 15.5666 9.33937 15.3409 9.33937 15.0625V14.1371H9.61126C9.88933 14.1371 10.1148 13.9115 10.1148 13.633C10.1148 13.3545 9.88933 13.1289 9.61126 13.1289H9.33937V10.8453C9.33937 10.5279 9.13487 10.2553 8.83049 10.1669C8.52623 10.0787 8.20808 10.1991 8.0385 10.467C7.4159 11.451 6.26702 13.3531 6.25547 13.3722C6.16149 13.5279 6.15853 13.7222 6.24782 13.8806C6.33711 14.039 6.50468 14.137 6.68641 14.137H8.33235V15.0624C8.33235 15.3409 8.55779 15.5666 8.83586 15.5666V15.5666ZM7.58118 13.1289C7.80105 12.7674 8.07214 12.3233 8.33235 11.9009V13.1289H7.58118Z" fill="#15A7E5"/>
<path d="M4.66297 12.6352C3.97619 13.6177 3.56633 14.1549 3.34613 14.4436C3.07188 14.8032 2.94668 14.9673 3.03234 15.246C3.08269 15.4101 3.20676 15.5359 3.37265 15.5912C3.43938 15.6135 3.50342 15.6348 4.35026 15.6348C4.6811 15.6348 5.1315 15.6315 5.7482 15.6238C6.02627 15.6203 6.24882 15.3918 6.24533 15.1134C6.24184 14.8372 6.01714 14.6156 5.74196 14.6156C5.73981 14.6156 5.73766 14.6156 5.73551 14.6157C5.30639 14.6211 4.85149 14.6246 4.4715 14.6255C4.71144 14.304 5.04268 13.8504 5.48799 13.2134C5.76599 12.8157 5.94739 12.4395 6.02708 12.0955C6.0309 12.079 6.03393 12.0623 6.03601 12.0455L6.05742 11.8775C6.06018 11.8564 6.06152 11.835 6.06152 11.8137C6.06152 10.9231 5.33781 10.1985 4.44828 10.1985C3.67912 10.1985 3.01334 10.7463 2.86524 11.5012C2.81167 11.7744 2.98938 12.0393 3.26228 12.093C3.53525 12.1466 3.79976 11.9688 3.8534 11.6955C3.90898 11.4123 4.15913 11.2068 4.44828 11.2068C4.77341 11.2068 5.0396 11.4644 5.0539 11.7865L5.0406 11.8903C4.98676 12.1032 4.85981 12.3536 4.66297 12.6352V12.6352Z" fill="#15A7E5"/>
<path d="M7.64683 18.0986C7.64683 17.5761 7.22227 17.151 6.70037 17.151H4.49016C3.96833 17.151 3.5437 17.5761 3.5437 18.0986V20.3115C3.5437 20.8339 3.96826 21.2591 4.49016 21.2591H6.70037C7.2222 21.2591 7.64683 20.834 7.64683 20.3115V18.0986ZM6.63981 20.2508H4.55079V18.1592H6.63988V20.2508H6.63981Z" fill="#15A7E5"/>
<path d="M12.9154 18.0986C12.9154 17.5761 12.4908 17.151 11.9689 17.151H9.75872C9.23688 17.151 8.81226 17.5761 8.81226 18.0986V20.3115C8.81226 20.8339 9.23681 21.2591 9.75872 21.2591H11.9689C12.4908 21.2591 12.9154 20.834 12.9154 20.3115V18.0986ZM11.9084 20.2508H9.81927V18.1592H11.9084V20.2508Z" fill="#15A7E5"/>
<path d="M18.1839 18.0986C18.1839 17.5761 17.7593 17.151 17.2375 17.151H15.0273C14.5054 17.151 14.0808 17.5761 14.0808 18.0986V20.3115C14.0808 20.8339 14.5054 21.2591 15.0273 21.2591H17.2375C17.7593 21.2591 18.1839 20.834 18.1839 20.3115V18.0986ZM17.1769 20.2508H15.0878V18.1592H17.1769V20.2508Z" fill="#15A7E5"/>
<path d="M22.3319 14.5021V12.2892C22.3319 11.7667 21.9073 11.3415 21.3854 11.3415H19.1752C18.6534 11.3415 18.2288 11.7666 18.2288 12.2892V14.5021C18.2288 15.0246 18.6533 15.4497 19.1752 15.4497H21.3854C21.9073 15.4497 22.3319 15.0246 22.3319 14.5021ZM21.3249 14.4415H19.2358V12.3498H21.3249V14.4415Z" fill="#15A7E5"/>
<path d="M24.4135 11.3416C23.8917 11.3416 23.467 11.7667 23.467 12.2892V14.5022C23.467 15.0246 23.8916 15.4498 24.4135 15.4498H26.6237C27.1455 15.4498 27.5702 15.0247 27.5702 14.5022V12.2892C27.5702 11.7668 27.1456 11.3416 26.6237 11.3416H24.4135ZM26.5631 14.4415H24.4741V12.3499H26.5631V14.4415Z" fill="#15A7E5"/>
<path d="M4.49016 26.2241H6.70037C7.2222 26.2241 7.64683 25.799 7.64683 25.2765V23.0636C7.64683 22.5411 7.22227 22.116 6.70037 22.116H4.49016C3.96833 22.116 3.5437 22.5411 3.5437 23.0636V25.2765C3.54377 25.799 3.96833 26.2241 4.49016 26.2241V26.2241ZM4.55079 23.1242H6.63988V25.2158H4.55079V23.1242Z" fill="#15A7E5"/>
<path d="M9.75872 26.2241H11.9689C12.4908 26.2241 12.9154 25.799 12.9154 25.2765V23.0636C12.9154 22.5411 12.4908 22.116 11.9689 22.116H9.75872C9.23688 22.116 8.81226 22.5411 8.81226 23.0636V25.2765C8.81232 25.799 9.23688 26.2241 9.75872 26.2241V26.2241ZM9.81934 23.1242H11.9084V25.2158H9.81934V23.1242Z" fill="#15A7E5"/>
<path d="M17.2375 22.116H15.0273C14.5054 22.116 14.0808 22.5411 14.0808 23.0636V25.2765C14.0808 25.799 14.5054 26.2241 15.0273 26.2241H17.2375C17.7593 26.2241 18.1839 25.799 18.1839 25.2765V23.0636C18.1839 22.5411 17.7593 22.116 17.2375 22.116ZM17.1769 25.2159H15.0878V23.1243H17.1769V25.2159Z" fill="#15A7E5"/>
<path d="M29.025 8.67337V7.66513H26.1166C25.8385 7.66513 25.6131 7.89078 25.6131 8.16925C25.6131 8.44772 25.8385 8.67337 26.1166 8.67337H29.025Z" fill="#15A7E5"/>
<path fill-rule="evenodd" clip-rule="evenodd" d="M7.29929 3.51746V4.59244C7.29929 5.37019 7.93129 6.00296 8.70811 6.00296C9.48492 6.00296 10.1169 5.37019 10.1169 4.59244V2.50929V1.41052C10.1169 0.632768 9.48492 0 8.70811 0C7.93129 0 7.29929 0.632768 7.29929 1.41052V2.50929V3.51746ZM8.70811 1.00823C8.48656 1.00823 8.30631 1.18864 8.30631 1.41052V4.59251C8.30631 4.81432 8.48656 4.99479 8.70811 4.99479C8.92965 4.99479 9.10991 4.81439 9.10991 4.59251V1.41052C9.10991 1.18871 8.92965 1.00823 8.70811 1.00823Z" fill="#15A7E5"/>
<path fill-rule="evenodd" clip-rule="evenodd" d="M20.2287 2.50929V4.59244C20.2287 5.37019 20.8607 6.00296 21.6375 6.00296C22.4143 6.00296 23.0463 5.37019 23.0463 4.59244V3.51746V2.50923V1.41052C23.0463 0.632768 22.4143 0 21.6375 0C20.8607 0 20.2287 0.632768 20.2287 1.41052V2.50929ZM21.6375 1.00823C21.416 1.00823 21.2357 1.18864 21.2357 1.41052V4.59251C21.2357 4.81432 21.4159 4.99479 21.6375 4.99479C21.859 4.99479 22.0393 4.81439 22.0393 4.59251V1.41052C22.0393 1.18871 21.8591 1.00823 21.6375 1.00823Z" fill="#15A7E5"/>
<path d="M1.32056 8.67337H23.9709C24.249 8.67337 24.4744 8.44772 24.4744 8.16925C24.4744 7.89078 24.249 7.66513 23.9709 7.66513H1.32056V8.67337Z" fill="#15A7E5"/>
<path d="M35.8714 24.2534L35.8714 24.2533C35.8539 24.1896 35.7361 23.8243 35.5647 23.3928C35.3943 22.964 35.1649 22.4541 34.9207 22.1066C33.4658 19.8209 30.9826 18.456 28.2784 18.456C23.9377 18.456 20.4069 21.9913 20.4069 26.3368C20.4069 30.6823 23.9377 34.2176 28.2784 34.2176C32.6191 34.2176 36.15 30.6822 36.15 26.3367C36.15 25.6312 36.0562 24.9303 35.8714 24.2534ZM34.6106 24.5984C34.7074 24.9529 34.7738 25.3157 34.81 25.6826H34.1762C33.815 25.6826 33.5227 25.9755 33.5227 26.3367C33.5227 26.6978 33.815 26.9908 34.1762 26.9908H34.8105C34.6795 28.3129 34.1555 29.5209 33.3571 30.4963L32.9109 30.0496C32.6557 29.7941 32.2418 29.794 31.9866 30.0495C31.7314 30.305 31.7314 30.7191 31.9866 30.9745L32.433 31.4215C31.4589 32.2209 30.2523 32.7456 28.9319 32.8768V32.2414C28.9319 31.8803 28.6395 31.5873 28.2784 31.5873C27.9172 31.5873 27.6249 31.8803 27.6249 32.2414V32.8768C26.3045 32.7456 25.0979 32.2209 24.1238 31.4215L24.5703 30.9744L24.5703 30.9744C24.8254 30.7189 24.8255 30.3049 24.5703 30.0495L24.5703 30.0494C24.315 29.794 23.9012 29.794 23.646 30.0495L23.646 30.0495L23.1997 30.4963C22.4014 29.5209 21.8773 28.3129 21.7463 26.9908H22.3807C22.7418 26.9908 23.0342 26.6978 23.0342 26.3367C23.0342 25.9755 22.7418 25.6826 22.3807 25.6826H21.7463C21.8773 24.3605 22.4013 23.1524 23.1997 22.177L23.646 22.6238C23.7735 22.7515 23.9411 22.8154 24.1081 22.8154C24.2751 22.8154 24.4427 22.7515 24.5703 22.6238C24.8254 22.3683 24.8255 21.9543 24.5702 21.6989C24.5702 21.6989 24.5702 21.6989 24.5702 21.6988L24.1238 21.2519C25.0979 20.4525 26.3045 19.9278 27.6249 19.7965V20.4319C27.6249 20.793 27.9173 21.086 28.2784 21.086C28.6396 21.086 28.9319 20.793 28.9319 20.4319V19.797C30.2323 19.9253 31.4457 20.4339 32.4367 21.2482L31.9865 21.6989L31.9865 21.6989C31.7314 21.9544 31.7314 22.3684 31.9865 22.6238L31.9866 22.6239C32.1142 22.7515 32.2817 22.8154 32.4488 22.8154C32.6158 22.8154 32.7833 22.7515 32.9109 22.6239L32.911 22.6238L33.3594 22.1749C33.524 22.3765 33.6782 22.5889 33.8201 22.8121L33.8201 22.8121C33.8224 22.8157 33.826 22.8212 33.8306 22.8284C33.8761 22.8986 34.0276 23.1326 34.1876 23.4406C34.2965 23.6503 34.4067 23.8894 34.4896 24.1303C34.5227 24.2675 34.5625 24.4225 34.6106 24.5984Z" fill="#15A7E5" stroke="#15A7E5" stroke-width="0.3"/>
<path d="M18.1703 27.9063H1V3.15115H29.1593V16.2164" stroke="#15A7E5" stroke-width="1.5" stroke-linecap="round"/>
</svg>
