<svg width="118" height="31" viewBox="0 0 118 31" fill="none" xmlns="http://www.w3.org/2000/svg">
<path d="M16.4515 0.933537H14.3951C13.2787 0.933537 12.3386 1.81487 12.3386 3.04873V16.7387C12.3386 18.4426 10.9873 19.9115 9.28335 19.9115C7.57944 19.9115 6.16931 18.5014 6.16931 16.7387V3.04873C6.16931 1.87362 5.22923 0.933537 4.11288 0.933537H2.05644C0.940086 0.933537 0 1.87362 0 3.04873V14.6235C0 19.8528 4.17163 24.0244 9.28335 24.0244C14.3951 24.0244 18.5079 19.794 18.5079 14.6235V3.04873C18.5079 1.87362 17.5679 0.933537 16.4515 0.933537ZM115.454 0.933537H114.397C109.285 0.933537 105.172 5.16392 105.172 10.3344V21.968C105.172 23.1431 106.112 24.0832 107.229 24.0832H109.285C110.401 24.0832 111.341 23.1431 111.341 21.968V8.2192C111.341 6.5153 112.693 5.04641 114.397 5.04641H115.454C116.571 5.04641 117.511 4.16508 117.511 2.98997C117.511 1.87362 116.571 0.933537 115.454 0.933537ZM72.3279 0.933537C67.2161 0.933537 63.1033 5.16392 63.1033 10.3344V21.968C63.1033 23.1431 64.0434 24.0832 65.1597 24.0832H67.2161C68.3325 24.0832 69.2726 23.1431 69.2726 21.968V8.2192C69.2726 6.5153 70.624 5.04641 72.3279 5.04641C74.0318 5.04641 75.4419 6.45654 75.4419 8.2192V21.9092C75.4419 23.0843 76.382 24.0244 77.4983 24.0244H79.5548C80.6711 24.0244 81.6112 23.0843 81.6112 21.9092V10.3344C81.6112 5.16392 77.4396 0.933537 72.3279 0.933537ZM30.3178 0.933537C25.2061 0.933537 21.0932 5.16392 21.0932 10.3344V13.6247V28.2548C21.0932 29.4299 22.0333 30.37 23.1496 30.37H25.2061C26.3224 30.37 27.2625 29.4299 27.2625 28.2548V23.4956C28.2026 23.8481 29.2602 24.0244 30.3178 24.0244C35.4295 24.0244 39.6011 19.794 39.6011 14.6235V10.3344C39.5424 5.16392 35.4295 0.933537 30.3178 0.933537ZM33.3731 16.68C33.3731 18.3839 31.9629 19.8528 30.259 19.8528C28.5551 19.8528 27.2037 18.4426 27.2037 16.68V8.2192C27.2037 6.5153 28.5551 5.04641 30.259 5.04641C31.9629 5.04641 33.3731 6.45654 33.3731 8.2192V16.68ZM51.3522 0.933537C46.2405 0.933537 42.0688 5.16392 42.0688 10.3344V14.6235C42.0688 19.8528 46.2405 24.0244 51.3522 24.0244C56.4639 24.0244 60.5768 19.794 60.5768 14.6235V10.3344C60.5768 5.16392 56.4639 0.933537 51.3522 0.933537ZM54.4662 16.68C54.4662 18.3839 53.1149 19.8528 51.3522 19.8528C49.6483 19.8528 48.2382 18.4426 48.2382 16.68V8.2192C48.2382 6.5153 49.6483 5.04641 51.3522 5.04641C53.0561 5.04641 54.4662 6.45654 54.4662 8.2192V16.68ZM93.421 0.933537C88.3093 0.933537 84.1377 5.16392 84.1377 10.3344V14.6235C84.1377 19.8528 88.3093 24.0244 93.421 24.0244C98.5328 24.0244 102.646 19.794 102.646 14.6235V10.3344C102.704 5.16392 98.5915 0.933537 93.421 0.933537ZM96.5351 16.68C96.5351 18.3839 95.1837 19.8528 93.421 19.8528C91.7171 19.8528 90.307 18.4426 90.307 16.68V8.2192C90.307 6.5153 91.7171 5.04641 93.421 5.04641C95.125 5.04641 96.5351 6.45654 96.5351 8.2192V16.68Z" fill="#0072BC" fill-opacity="0.5"/>
</svg>
